<svg width="328" height="68" viewBox="0 0 328 68" fill="none" xmlns="http://www.w3.org/2000/svg">
<g filter="url(#filter0_d_1493_2951)">
<path d="M16 24.2664H17.2522V14.0154H16V13.0772H21.9353C23.1132 13.0772 23.9995 13.3436 24.5941 13.8764C25.1888 14.4093 25.4861 15.0985 25.4861 15.944C25.4861 16.3726 25.4175 16.7548 25.2803 17.0907C25.1431 17.4151 24.9601 17.6931 24.7314 17.9247C24.5141 18.1564 24.2625 18.3475 23.9766 18.4981C23.6907 18.6486 23.3934 18.7529 23.0846 18.8108V18.8977C23.4048 18.9324 23.7307 19.0135 24.0624 19.1409C24.4054 19.2683 24.7142 19.4537 24.9887 19.6969C25.2746 19.9402 25.5033 20.2413 25.6748 20.6004C25.8578 20.9479 25.9493 21.3591 25.9493 21.834C25.9493 22.888 25.6348 23.7162 25.0058 24.3185C24.3768 24.9093 23.502 25.2046 22.3813 25.2046H16V24.2664ZM19.2936 24.1969H21.798C22.4499 24.1969 22.9531 24.0174 23.3076 23.6583C23.6621 23.2876 23.8394 22.807 23.8394 22.2162V21.4344C23.8394 20.8436 23.6621 20.3687 23.3076 20.0097C22.9531 19.639 22.4499 19.4537 21.798 19.4537H19.2936V24.1969ZM19.2936 18.4286H21.5064C22.124 18.4286 22.5871 18.2664 22.8959 17.9421C23.2161 17.6178 23.3762 17.1834 23.3762 16.639V15.8745C23.3762 15.3301 23.2161 14.8958 22.8959 14.5714C22.5871 14.2471 22.124 14.0849 21.5064 14.0849H19.2936V18.4286Z" fill="white"/>
<path d="M27.6573 24.2664H28.8238V17.5598L27.6573 17.334V16.5695L30.6936 15.9614V17.5772H30.7793C30.8594 17.3687 30.9566 17.1718 31.071 16.9865C31.1967 16.7896 31.3454 16.6158 31.517 16.4653C31.6999 16.3147 31.9058 16.1931 32.1345 16.1004C32.3747 16.0077 32.6434 15.9614 32.9407 15.9614C33.4668 15.9614 33.8842 16.0946 34.193 16.361C34.5132 16.6274 34.6733 17.0097 34.6733 17.5077C34.6733 17.9015 34.5704 18.2143 34.3645 18.4459C34.1701 18.666 33.9014 18.7761 33.5583 18.7761C33.2038 18.7761 32.9236 18.6834 32.7177 18.4981C32.5233 18.3012 32.4261 18.0579 32.4261 17.7683C32.4261 17.5714 32.4661 17.4093 32.5462 17.2819C32.6262 17.1429 32.7234 17.0618 32.8378 17.0386V16.9865C32.8035 16.9749 32.7635 16.9691 32.7177 16.9691C32.672 16.9575 32.6034 16.9517 32.5119 16.9517C32.2946 16.9517 32.0773 17.0097 31.86 17.1255C31.6542 17.2413 31.4655 17.3919 31.294 17.5772C31.1338 17.751 31.0023 17.9537 30.8994 18.1853C30.7965 18.4054 30.745 18.6255 30.745 18.8456V24.2664H32.2546V25.2046H27.6573V24.2664Z" fill="white"/>
<path d="M37.7416 14.4846C37.3756 14.4846 37.0897 14.3803 36.8839 14.1718C36.678 13.9517 36.5751 13.6737 36.5751 13.3378V13.2336C36.5751 12.8977 36.678 12.6255 36.8839 12.417C37.0897 12.1969 37.3756 12.0869 37.7416 12.0869C38.1075 12.0869 38.3934 12.1969 38.5993 12.417C38.8051 12.6255 38.908 12.8977 38.908 13.2336V13.3378C38.908 13.6737 38.8051 13.9517 38.5993 14.1718C38.3934 14.3803 38.1075 14.4846 37.7416 14.4846ZM35.6145 24.2664H36.7809V17.5598L35.6145 17.334V16.5695L38.7022 15.9614V24.2664H39.8686V25.2046H35.6145V24.2664Z" fill="white"/>
<path d="M41.1593 24.2664H42.3258V17.5598L41.1593 17.334V16.5695L44.1956 15.9614V17.5772H44.2814C44.35 17.3803 44.4529 17.1834 44.5901 16.9865C44.7388 16.7896 44.9161 16.6158 45.1219 16.4653C45.3392 16.3147 45.5851 16.1931 45.8595 16.1004C46.1454 16.0077 46.4656 15.9614 46.8202 15.9614C47.9066 15.9614 48.6785 16.2452 49.1359 16.8127C49.5934 17.3687 49.8221 18.2085 49.8221 19.332V24.2664H50.9886V25.2046H46.7687V24.2664H47.9009V19.4363C47.9009 18.6834 47.7579 18.1332 47.472 17.7857C47.1861 17.4382 46.7344 17.2645 46.1168 17.2645C45.8881 17.2645 45.6594 17.2992 45.4307 17.3687C45.2134 17.4266 45.0133 17.5251 44.8303 17.6641C44.6588 17.7915 44.5158 17.9537 44.4014 18.1506C44.2985 18.3475 44.2471 18.5849 44.2471 18.8629V24.2664H45.3792V25.2046H41.1593V24.2664Z" fill="white"/>
<path d="M56.1423 28.888C55.3875 28.888 54.7528 28.8359 54.2382 28.7317C53.7235 28.639 53.3119 28.5 53.0031 28.3147C52.6943 28.1409 52.4713 27.9208 52.3341 27.6544C52.1968 27.3996 52.1282 27.1158 52.1282 26.8031C52.1282 26.5714 52.1797 26.3571 52.2826 26.1602C52.3855 25.9749 52.5228 25.807 52.6943 25.6564C52.8658 25.5174 53.066 25.3958 53.2947 25.2915C53.5234 25.1873 53.7579 25.1062 53.998 25.0483V24.9788C53.6206 24.8745 53.329 24.6892 53.1232 24.4228C52.9173 24.1564 52.8144 23.8205 52.8144 23.4151C52.8144 22.917 52.9688 22.529 53.2775 22.251C53.5978 21.973 53.9751 21.7761 54.4097 21.6602V21.5907C53.8608 21.3591 53.4262 21.0232 53.106 20.583C52.7858 20.1313 52.6257 19.5811 52.6257 18.9324C52.6257 18.4691 52.7115 18.0521 52.883 17.6815C53.066 17.3108 53.3119 16.9981 53.6206 16.7432C53.9408 16.4884 54.3182 16.2973 54.7528 16.1699C55.1873 16.0309 55.6677 15.9614 56.1937 15.9614C56.7083 15.9614 57.1429 16.0135 57.4974 16.1178C57.8519 16.222 58.1779 16.3726 58.4752 16.5695C58.4981 15.9093 58.641 15.4459 58.904 15.1795C59.1671 14.9015 59.5044 14.7625 59.9161 14.7625C60.202 14.7625 60.4365 14.8494 60.6194 15.0232C60.8138 15.1853 60.911 15.417 60.911 15.7181C60.911 15.9961 60.8196 16.2278 60.6366 16.4131C60.465 16.5869 60.2249 16.6737 59.9161 16.6737C59.573 16.6737 59.2929 16.5463 59.0756 16.2915H59.007V17.0039C59.2128 17.2124 59.3958 17.473 59.5559 17.7857C59.716 18.0869 59.796 18.4691 59.796 18.9324C59.796 19.3958 59.7046 19.8127 59.5216 20.1834C59.35 20.5541 59.1042 20.8668 58.784 21.1216C58.4638 21.3764 58.0806 21.5734 57.6346 21.7124C57.2001 21.8514 56.7198 21.9208 56.1937 21.9208C55.9993 21.9208 55.8106 21.9093 55.6276 21.8861C55.4561 21.8629 55.2846 21.834 55.113 21.7992C54.8729 21.8803 54.667 22.0019 54.4955 22.1641C54.3239 22.3263 54.2382 22.5232 54.2382 22.7548C54.2382 23.0212 54.3354 23.2124 54.5298 23.3282C54.7356 23.444 55.073 23.5019 55.5419 23.5019H57.5489C58.6582 23.5019 59.4644 23.722 59.9676 24.1622C60.4708 24.6023 60.7224 25.2046 60.7224 25.9691C60.7224 26.8726 60.3393 27.5849 59.573 28.1062C58.8183 28.6274 57.6747 28.888 56.1423 28.888ZM56.2109 20.9826C56.7598 20.9826 57.1715 20.832 57.446 20.5309C57.7204 20.2297 57.8576 19.7954 57.8576 19.2278V18.6544C57.8576 18.0869 57.7204 17.6525 57.446 17.3514C57.1715 17.0502 56.7598 16.8996 56.2109 16.8996C55.6619 16.8996 55.2502 17.0502 54.9758 17.3514C54.7013 17.6525 54.5641 18.0869 54.5641 18.6544V19.2278C54.5641 19.7954 54.7013 20.2297 54.9758 20.5309C55.2502 20.832 55.6619 20.9826 56.2109 20.9826ZM53.7407 26.6467C53.7407 27.0753 53.918 27.3938 54.2725 27.6023C54.627 27.8108 55.1302 27.9151 55.782 27.9151H56.7083C57.486 27.9151 58.0806 27.7876 58.4923 27.5328C58.9155 27.2896 59.127 26.9421 59.127 26.4903C59.127 26.0734 58.9841 25.7722 58.6982 25.5869C58.4237 25.4015 57.972 25.3089 57.343 25.3089H54.5641C54.0152 25.5985 53.7407 26.0444 53.7407 26.6467Z" fill="white"/>
<path d="M64.0085 14.4846C63.6426 14.4846 63.3567 14.3803 63.1508 14.1718C62.945 13.9517 62.8421 13.6737 62.8421 13.3378V13.2336C62.8421 12.8977 62.945 12.6255 63.1508 12.417C63.3567 12.1969 63.6426 12.0869 64.0085 12.0869C64.3745 12.0869 64.6604 12.1969 64.8662 12.417C65.0721 12.6255 65.175 12.8977 65.175 13.2336V13.3378C65.175 13.6737 65.0721 13.9517 64.8662 14.1718C64.6604 14.3803 64.3745 14.4846 64.0085 14.4846ZM61.8815 24.2664H63.0479V17.5598L61.8815 17.334V16.5695L64.9692 15.9614V24.2664H66.1356V25.2046H61.8815V24.2664Z" fill="white"/>
<path d="M67.4263 24.2664H68.5928V17.5598L67.4263 17.334V16.5695L70.4626 15.9614V17.5772H70.5484C70.617 17.3803 70.7199 17.1834 70.8571 16.9865C71.0058 16.7896 71.183 16.6158 71.3889 16.4653C71.6062 16.3147 71.8521 16.1931 72.1265 16.1004C72.4124 16.0077 72.7326 15.9614 73.0871 15.9614C74.1736 15.9614 74.9455 16.2452 75.4029 16.8127C75.8604 17.3687 76.0891 18.2085 76.0891 19.332V24.2664H77.2555V25.2046H73.0357V24.2664H74.1678V19.4363C74.1678 18.6834 74.0249 18.1332 73.739 17.7857C73.4531 17.4382 73.0014 17.2645 72.3838 17.2645C72.1551 17.2645 71.9264 17.2992 71.6977 17.3687C71.4804 17.4266 71.2803 17.5251 71.0973 17.6641C70.9257 17.7915 70.7828 17.9537 70.6684 18.1506C70.5655 18.3475 70.514 18.5849 70.514 18.8629V24.2664H71.6462V25.2046H67.4263V24.2664Z" fill="white"/>
<path d="M82.4092 28.888C81.6545 28.888 81.0198 28.8359 80.5051 28.7317C79.9905 28.639 79.5788 28.5 79.2701 28.3147C78.9613 28.1409 78.7383 27.9208 78.6011 27.6544C78.4638 27.3996 78.3952 27.1158 78.3952 26.8031C78.3952 26.5714 78.4467 26.3571 78.5496 26.1602C78.6525 25.9749 78.7898 25.807 78.9613 25.6564C79.1328 25.5174 79.333 25.3958 79.5617 25.2915C79.7904 25.1873 80.0248 25.1062 80.265 25.0483V24.9788C79.8876 24.8745 79.596 24.6892 79.3901 24.4228C79.1843 24.1564 79.0814 23.8205 79.0814 23.4151C79.0814 22.917 79.2358 22.529 79.5445 22.251C79.8647 21.973 80.2421 21.7761 80.6767 21.6602V21.5907C80.1278 21.3591 79.6932 21.0232 79.373 20.583C79.0528 20.1313 78.8927 19.5811 78.8927 18.9324C78.8927 18.4691 78.9784 18.0521 79.15 17.6815C79.333 17.3108 79.5788 16.9981 79.8876 16.7432C80.2078 16.4884 80.5852 16.2973 81.0198 16.1699C81.4543 16.0309 81.9346 15.9614 82.4607 15.9614C82.9753 15.9614 83.4099 16.0135 83.7644 16.1178C84.1189 16.222 84.4448 16.3726 84.7422 16.5695C84.765 15.9093 84.908 15.4459 85.171 15.1795C85.4341 14.9015 85.7714 14.7625 86.1831 14.7625C86.469 14.7625 86.7034 14.8494 86.8864 15.0232C87.0808 15.1853 87.178 15.417 87.178 15.7181C87.178 15.9961 87.0865 16.2278 86.9036 16.4131C86.732 16.5869 86.4919 16.6737 86.1831 16.6737C85.84 16.6737 85.5598 16.5463 85.3426 16.2915H85.2739V17.0039C85.4798 17.2124 85.6628 17.473 85.8229 17.7857C85.983 18.0869 86.063 18.4691 86.063 18.9324C86.063 19.3958 85.9715 19.8127 85.7886 20.1834C85.617 20.5541 85.3712 20.8668 85.0509 21.1216C84.7307 21.3764 84.3476 21.5734 83.9016 21.7124C83.4671 21.8514 82.9868 21.9208 82.4607 21.9208C82.2663 21.9208 82.0776 21.9093 81.8946 21.8861C81.7231 21.8629 81.5515 21.834 81.38 21.7992C81.1398 21.8803 80.934 22.0019 80.7625 22.1641C80.5909 22.3263 80.5051 22.5232 80.5051 22.7548C80.5051 23.0212 80.6024 23.2124 80.7968 23.3282C81.0026 23.444 81.34 23.5019 81.8088 23.5019H83.8159C84.9252 23.5019 85.7314 23.722 86.2346 24.1622C86.7378 24.6023 86.9893 25.2046 86.9893 25.9691C86.9893 26.8726 86.6062 27.5849 85.84 28.1062C85.0853 28.6274 83.9417 28.888 82.4092 28.888ZM82.4779 20.9826C83.0268 20.9826 83.4385 20.832 83.7129 20.5309C83.9874 20.2297 84.1246 19.7954 84.1246 19.2278V18.6544C84.1246 18.0869 83.9874 17.6525 83.7129 17.3514C83.4385 17.0502 83.0268 16.8996 82.4779 16.8996C81.9289 16.8996 81.5172 17.0502 81.2428 17.3514C80.9683 17.6525 80.8311 18.0869 80.8311 18.6544V19.2278C80.8311 19.7954 80.9683 20.2297 81.2428 20.5309C81.5172 20.832 81.9289 20.9826 82.4779 20.9826ZM80.0077 26.6467C80.0077 27.0753 80.1849 27.3938 80.5395 27.6023C80.894 27.8108 81.3972 27.9151 82.049 27.9151H82.9753C83.753 27.9151 84.3476 27.7876 84.7593 27.5328C85.1825 27.2896 85.394 26.9421 85.394 26.4903C85.394 26.0734 85.2511 25.7722 84.9652 25.5869C84.6907 25.4015 84.239 25.3089 83.61 25.3089H80.8311C80.2821 25.5985 80.0077 26.0444 80.0077 26.6467Z" fill="white"/>
<path d="M92.3241 17.1081H91.4664V16.1699H95.5319V17.1081H94.3997L96.5097 23.3108H96.5954L98.7054 17.1081H97.5732V16.1699H100.712V17.1081H99.8547L96.8356 25.2046H95.3432L92.3241 17.1081Z" fill="#0F2A3D"/>
<path d="M103.677 14.4846C103.311 14.4846 103.025 14.3803 102.819 14.1718C102.614 13.9517 102.511 13.6737 102.511 13.3378V13.2336C102.511 12.8977 102.614 12.6255 102.819 12.417C103.025 12.1969 103.311 12.0869 103.677 12.0869C104.043 12.0869 104.329 12.1969 104.535 12.417C104.741 12.6255 104.844 12.8977 104.844 13.2336V13.3378C104.844 13.6737 104.741 13.9517 104.535 14.1718C104.329 14.3803 104.043 14.4846 103.677 14.4846ZM101.55 24.2664H102.716V17.5598L101.55 17.334V16.5695L104.638 15.9614V24.2664H105.804V25.2046H101.55V24.2664Z" fill="#0F2A3D"/>
<path d="M110.749 25.4131C110.165 25.4131 109.691 25.2973 109.325 25.0656C108.959 24.834 108.719 24.5792 108.604 24.3012H108.536V25.2046H107.232V22.5116H108.536V22.8243C108.536 23.3108 108.684 23.6931 108.982 23.971C109.279 24.249 109.759 24.388 110.423 24.388C111.658 24.388 112.275 23.9479 112.275 23.0676C112.275 22.3842 111.829 21.9324 110.937 21.7124L110.011 21.4865C109.096 21.2664 108.416 20.9305 107.97 20.4788C107.524 20.027 107.301 19.4073 107.301 18.6197C107.301 17.7741 107.581 17.1197 108.141 16.6564C108.702 16.1931 109.445 15.9614 110.371 15.9614C110.943 15.9614 111.4 16.0598 111.744 16.2568C112.087 16.4537 112.31 16.6911 112.413 16.9691H112.481V16.1699H113.785V18.8629H112.481V18.3591C112.481 17.444 111.869 16.9865 110.646 16.9865C110.12 16.9865 109.714 17.0907 109.428 17.2992C109.153 17.4961 109.016 17.7973 109.016 18.2027C109.016 18.9208 109.474 19.3958 110.388 19.6274L111.263 19.8359C112.19 20.0444 112.881 20.3629 113.339 20.7915C113.796 21.2085 114.025 21.8282 114.025 22.6506C114.025 23.4846 113.728 24.1564 113.133 24.666C112.55 25.1641 111.755 25.4131 110.749 25.4131Z" fill="#0F2A3D"/>
<path d="M117.749 14.4846C117.383 14.4846 117.097 14.3803 116.891 14.1718C116.685 13.9517 116.582 13.6737 116.582 13.3378V13.2336C116.582 12.8977 116.685 12.6255 116.891 12.417C117.097 12.1969 117.383 12.0869 117.749 12.0869C118.115 12.0869 118.401 12.1969 118.606 12.417C118.812 12.6255 118.915 12.8977 118.915 13.2336V13.3378C118.915 13.6737 118.812 13.9517 118.606 14.1718C118.401 14.3803 118.115 14.4846 117.749 14.4846ZM115.622 24.2664H116.788V17.5598L115.622 17.334V16.5695L118.709 15.9614V24.2664H119.876V25.2046H115.622V24.2664Z" fill="#0F2A3D"/>
<path d="M125.318 24.388C126.038 24.388 126.564 24.1622 126.896 23.7104C127.239 23.2587 127.41 22.6564 127.41 21.9035V19.471C127.41 18.7181 127.239 18.1158 126.896 17.6641C126.564 17.2124 126.038 16.9865 125.318 16.9865C124.597 16.9865 124.065 17.2124 123.722 17.6641C123.391 18.1158 123.225 18.7181 123.225 19.471V21.9035C123.225 22.6564 123.391 23.2587 123.722 23.7104C124.065 24.1622 124.597 24.388 125.318 24.388ZM125.318 25.4131C124.689 25.4131 124.117 25.3031 123.602 25.083C123.088 24.8629 122.647 24.5502 122.281 24.1448C121.915 23.7394 121.63 23.2471 121.424 22.668C121.229 22.0772 121.132 21.417 121.132 20.6873C121.132 19.9575 121.229 19.3031 121.424 18.7239C121.63 18.1332 121.915 17.6351 122.281 17.2297C122.647 16.8243 123.088 16.5116 123.602 16.2915C124.117 16.0714 124.689 15.9614 125.318 15.9614C125.947 15.9614 126.518 16.0714 127.033 16.2915C127.548 16.5116 127.988 16.8243 128.354 17.2297C128.72 17.6351 129 18.1332 129.194 18.7239C129.4 19.3031 129.503 19.9575 129.503 20.6873C129.503 21.417 129.4 22.0772 129.194 22.668C129 23.2471 128.72 23.7394 128.354 24.1448C127.988 24.5502 127.548 24.8629 127.033 25.083C126.518 25.3031 125.947 25.4131 125.318 25.4131Z" fill="#0F2A3D"/>
<path d="M130.983 24.2664H132.15V17.5598L130.983 17.334V16.5695L134.019 15.9614V17.5772H134.105C134.174 17.3803 134.277 17.1834 134.414 16.9865C134.563 16.7896 134.74 16.6158 134.946 16.4653C135.163 16.3147 135.409 16.1931 135.683 16.1004C135.969 16.0077 136.289 15.9614 136.644 15.9614C137.73 15.9614 138.502 16.2452 138.96 16.8127C139.417 17.3687 139.646 18.2085 139.646 19.332V24.2664H140.812V25.2046H136.592V24.2664H137.725V19.4363C137.725 18.6834 137.582 18.1332 137.296 17.7857C137.01 17.4382 136.558 17.2645 135.941 17.2645C135.712 17.2645 135.483 17.2992 135.254 17.3687C135.037 17.4266 134.837 17.5251 134.654 17.6641C134.482 17.7915 134.34 17.9537 134.225 18.1506C134.122 18.3475 134.071 18.5849 134.071 18.8629V24.2664H135.203V25.2046H130.983V24.2664Z" fill="#0F2A3D"/>
<path d="M145.76 25.4131C145.177 25.4131 144.702 25.2973 144.336 25.0656C143.97 24.834 143.73 24.5792 143.616 24.3012H143.547V25.2046H142.244V22.5116H143.547V22.8243C143.547 23.3108 143.696 23.6931 143.993 23.971C144.291 24.249 144.771 24.388 145.434 24.388C146.669 24.388 147.287 23.9479 147.287 23.0676C147.287 22.3842 146.841 21.9324 145.949 21.7124L145.022 21.4865C144.108 21.2664 143.427 20.9305 142.981 20.4788C142.535 20.027 142.312 19.4073 142.312 18.6197C142.312 17.7741 142.592 17.1197 143.153 16.6564C143.713 16.1931 144.456 15.9614 145.383 15.9614C145.955 15.9614 146.412 16.0598 146.755 16.2568C147.098 16.4537 147.321 16.6911 147.424 16.9691H147.493V16.1699H148.796V18.8629H147.493V18.3591C147.493 17.444 146.881 16.9865 145.657 16.9865C145.131 16.9865 144.725 17.0907 144.439 17.2992C144.165 17.4961 144.028 17.7973 144.028 18.2027C144.028 18.9208 144.485 19.3958 145.4 19.6274L146.275 19.8359C147.201 20.0444 147.893 20.3629 148.35 20.7915C148.808 21.2085 149.037 21.8282 149.037 22.6506C149.037 23.4846 148.739 24.1564 148.145 24.666C147.561 25.1641 146.766 25.4131 145.76 25.4131Z" fill="#0F2A3D"/>
<path d="M157.365 25.3436C156.713 25.3436 156.255 25.2046 155.992 24.9266C155.729 24.6486 155.598 24.2085 155.598 23.6062V17.1776H154.431V16.1699H154.723C155.146 16.1699 155.438 16.0946 155.598 15.944C155.758 15.7934 155.889 15.5734 155.992 15.2838L156.524 13.7548H157.519V16.1699H159.663V17.1776H157.519V24.2143H159.663V24.9788C159.469 25.0714 159.154 25.1525 158.72 25.222C158.297 25.3031 157.845 25.3436 157.365 25.3436Z" fill="#0F2A3D"/>
<path d="M164.969 24.388C165.69 24.388 166.216 24.1622 166.548 23.7104C166.891 23.2587 167.062 22.6564 167.062 21.9035V19.471C167.062 18.7181 166.891 18.1158 166.548 17.6641C166.216 17.2124 165.69 16.9865 164.969 16.9865C164.249 16.9865 163.717 17.2124 163.374 17.6641C163.042 18.1158 162.877 18.7181 162.877 19.471V21.9035C162.877 22.6564 163.042 23.2587 163.374 23.7104C163.717 24.1622 164.249 24.388 164.969 24.388ZM164.969 25.4131C164.34 25.4131 163.769 25.3031 163.254 25.083C162.739 24.8629 162.299 24.5502 161.933 24.1448C161.567 23.7394 161.281 23.2471 161.076 22.668C160.881 22.0772 160.784 21.417 160.784 20.6873C160.784 19.9575 160.881 19.3031 161.076 18.7239C161.281 18.1332 161.567 17.6351 161.933 17.2297C162.299 16.8243 162.739 16.5116 163.254 16.2915C163.769 16.0714 164.34 15.9614 164.969 15.9614C165.598 15.9614 166.17 16.0714 166.685 16.2915C167.199 16.5116 167.64 16.8243 168.006 17.2297C168.372 17.6351 168.652 18.1332 168.846 18.7239C169.052 19.3031 169.155 19.9575 169.155 20.6873C169.155 21.417 169.052 22.0772 168.846 22.668C168.652 23.2471 168.372 23.7394 168.006 24.1448C167.64 24.5502 167.199 24.8629 166.685 25.083C166.17 25.3031 165.598 25.4131 164.969 25.4131Z" fill="#0F2A3D"/>
<path d="M174.399 24.2664H175.565V13.5985L174.399 13.3726V12.6081L177.486 12V24.2664H178.653V25.2046H174.399V24.2664Z" fill="#0F2A3D"/>
<path d="M182.059 14.4846C181.693 14.4846 181.407 14.3803 181.202 14.1718C180.996 13.9517 180.893 13.6737 180.893 13.3378V13.2336C180.893 12.8977 180.996 12.6255 181.202 12.417C181.407 12.1969 181.693 12.0869 182.059 12.0869C182.425 12.0869 182.711 12.1969 182.917 12.417C183.123 12.6255 183.226 12.8977 183.226 13.2336V13.3378C183.226 13.6737 183.123 13.9517 182.917 14.1718C182.711 14.3803 182.425 14.4846 182.059 14.4846ZM179.932 24.2664H181.099V17.5598L179.932 17.334V16.5695L183.02 15.9614V24.2664H184.186V25.2046H179.932V24.2664Z" fill="#0F2A3D"/>
<path d="M185.426 24.2664H186.592V17.1776H185.426V16.1699H186.592V15.0753C186.592 14.612 186.666 14.1892 186.815 13.807C186.964 13.4247 187.175 13.1004 187.45 12.834C187.736 12.5676 188.073 12.3649 188.462 12.2259C188.862 12.0753 189.308 12 189.8 12C190.486 12 191.012 12.1448 191.378 12.4344C191.755 12.7239 191.944 13.0946 191.944 13.5463C191.944 13.8822 191.847 14.1486 191.652 14.3456C191.469 14.5425 191.229 14.6409 190.932 14.6409C190.623 14.6409 190.383 14.5541 190.211 14.3803C190.04 14.195 189.954 13.9691 189.954 13.7027C189.954 13.4942 190 13.3263 190.091 13.1988C190.183 13.0598 190.292 12.9614 190.417 12.9035V12.8514C190.28 12.8166 190.103 12.7992 189.886 12.7992C188.971 12.7992 188.513 13.4537 188.513 14.7625V16.1699H190.366V17.1776H188.513V24.2664H190.023V25.2046H185.426V24.2664Z" fill="#0F2A3D"/>
<path d="M195.541 25.4131C194.878 25.4131 194.289 25.3031 193.774 25.083C193.26 24.8514 192.825 24.527 192.471 24.11C192.116 23.6931 191.842 23.195 191.647 22.6158C191.464 22.0367 191.373 21.3938 191.373 20.6873C191.373 19.9691 191.47 19.3205 191.664 18.7413C191.87 18.1622 192.151 17.6699 192.505 17.2645C192.871 16.8475 193.3 16.529 193.792 16.3089C194.295 16.0772 194.844 15.9614 195.438 15.9614C196.044 15.9614 196.588 16.0656 197.068 16.2741C197.548 16.471 197.954 16.7548 198.286 17.1255C198.629 17.4961 198.892 17.9421 199.075 18.4633C199.258 18.9846 199.349 19.5637 199.349 20.2008V20.6699H193.448V21.2259C193.448 22.1293 193.671 22.8301 194.117 23.3282C194.564 23.8147 195.164 24.0579 195.919 24.0579C196.582 24.0579 197.114 23.9131 197.514 23.6236C197.926 23.3224 198.229 22.9517 198.423 22.5116L199.161 22.9633C199.058 23.2645 198.903 23.5598 198.698 23.8494C198.503 24.139 198.257 24.3996 197.96 24.6313C197.663 24.8629 197.314 25.0541 196.914 25.2046C196.513 25.3436 196.056 25.4131 195.541 25.4131ZM193.448 19.749H197.36V19.5579C197.36 18.7239 197.199 18.0811 196.879 17.6293C196.571 17.166 196.09 16.9344 195.438 16.9344C194.798 16.9344 194.306 17.1602 193.963 17.612C193.62 18.0521 193.448 18.6892 193.448 19.5232V19.749Z" fill="#0F2A3D"/>
<path d="M200.333 27.6371C200.768 27.2664 201.122 26.8958 201.397 26.5251C201.683 26.1544 201.877 25.7838 201.98 25.4131H201.946C201.603 25.4131 201.317 25.2973 201.088 25.0656C200.871 24.834 200.762 24.5386 200.762 24.1795V24.0753C200.762 23.7394 200.871 23.4498 201.088 23.2066C201.317 22.9633 201.631 22.8417 202.031 22.8417C202.432 22.8417 202.74 22.9633 202.958 23.2066C203.186 23.4498 203.301 23.7394 203.301 24.0753V24.3359C203.301 24.6255 203.249 24.9209 203.146 25.222C203.055 25.5347 202.929 25.8359 202.769 26.1255C202.609 26.4151 202.414 26.6873 202.186 26.9421C201.968 27.2085 201.734 27.4402 201.482 27.6371H200.333Z" fill="#0F2A3D"/>
<path d="M213.265 24.388C213.986 24.388 214.512 24.1622 214.843 23.7104C215.186 23.2587 215.358 22.6564 215.358 21.9035V19.471C215.358 18.7181 215.186 18.1158 214.843 17.6641C214.512 17.2124 213.986 16.9865 213.265 16.9865C212.545 16.9865 212.013 17.2124 211.67 17.6641C211.338 18.1158 211.172 18.7181 211.172 19.471V21.9035C211.172 22.6564 211.338 23.2587 211.67 23.7104C212.013 24.1622 212.545 24.388 213.265 24.388ZM213.265 25.4131C212.636 25.4131 212.064 25.3031 211.55 25.083C211.035 24.8629 210.595 24.5502 210.229 24.1448C209.863 23.7394 209.577 23.2471 209.371 22.668C209.177 22.0772 209.08 21.417 209.08 20.6873C209.08 19.9575 209.177 19.3031 209.371 18.7239C209.577 18.1332 209.863 17.6351 210.229 17.2297C210.595 16.8243 211.035 16.5116 211.55 16.2915C212.064 16.0714 212.636 15.9614 213.265 15.9614C213.894 15.9614 214.466 16.0714 214.981 16.2915C215.495 16.5116 215.935 16.8243 216.301 17.2297C216.667 17.6351 216.948 18.1332 217.142 18.7239C217.348 19.3031 217.451 19.9575 217.451 20.6873C217.451 21.417 217.348 22.0772 217.142 22.668C216.948 23.2471 216.667 23.7394 216.301 24.1448C215.935 24.5502 215.495 24.8629 214.981 25.083C214.466 25.3031 213.894 25.4131 213.265 25.4131Z" fill="#67D3DF"/>
<path d="M218.931 24.2664H220.097V17.5598L218.931 17.334V16.5695L221.967 15.9614V17.5772H222.053C222.121 17.3803 222.224 17.1834 222.361 16.9865C222.51 16.7896 222.687 16.6158 222.893 16.4653C223.11 16.3147 223.356 16.1931 223.631 16.1004C223.917 16.0077 224.237 15.9614 224.591 15.9614C225.678 15.9614 226.45 16.2452 226.907 16.8127C227.365 17.3687 227.593 18.2085 227.593 19.332V24.2664H228.76V25.2046H224.54V24.2664H225.672V19.4363C225.672 18.6834 225.529 18.1332 225.243 17.7857C224.957 17.4382 224.506 17.2645 223.888 17.2645C223.659 17.2645 223.431 17.2992 223.202 17.3687C222.985 17.4266 222.784 17.5251 222.601 17.6641C222.43 17.7915 222.287 17.9537 222.173 18.1506C222.07 18.3475 222.018 18.5849 222.018 18.8629V24.2664H223.15V25.2046H218.931V24.2664Z" fill="#67D3DF"/>
<path d="M234.188 25.4131C233.525 25.4131 232.936 25.3031 232.421 25.083C231.906 24.8514 231.472 24.527 231.117 24.11C230.763 23.6931 230.488 23.195 230.294 22.6158C230.111 22.0367 230.02 21.3938 230.02 20.6873C230.02 19.9691 230.117 19.3205 230.311 18.7413C230.517 18.1622 230.797 17.6699 231.152 17.2645C231.518 16.8475 231.946 16.529 232.438 16.3089C232.941 16.0772 233.49 15.9614 234.085 15.9614C234.691 15.9614 235.234 16.0656 235.715 16.2741C236.195 16.471 236.601 16.7548 236.933 17.1255C237.276 17.4961 237.539 17.9421 237.722 18.4633C237.905 18.9846 237.996 19.5637 237.996 20.2008V20.6699H232.095V21.2259C232.095 22.1293 232.318 22.8301 232.764 23.3282C233.21 23.8147 233.811 24.0579 234.565 24.0579C235.229 24.0579 235.76 23.9131 236.161 23.6236C236.572 23.3224 236.875 22.9517 237.07 22.5116L237.807 22.9633C237.704 23.2645 237.55 23.5598 237.344 23.8494C237.15 24.139 236.904 24.3996 236.607 24.6313C236.309 24.8629 235.961 25.0541 235.56 25.2046C235.16 25.3436 234.703 25.4131 234.188 25.4131ZM232.095 19.749H236.006V19.5579C236.006 18.7239 235.846 18.0811 235.526 17.6293C235.217 17.166 234.737 16.9344 234.085 16.9344C233.445 16.9344 232.953 17.1602 232.61 17.612C232.267 18.0521 232.095 18.6892 232.095 19.5232V19.749Z" fill="#67D3DF"/>
<path d="M243.37 24.2664H244.537V17.1776H243.37V16.1699H244.537V15.0753C244.537 14.612 244.611 14.1892 244.76 13.807C244.909 13.4247 245.12 13.1004 245.395 12.834C245.68 12.5676 246.018 12.3649 246.407 12.2259C246.807 12.0753 247.253 12 247.745 12C248.431 12 248.957 12.1448 249.323 12.4344C249.7 12.7239 249.889 13.0946 249.889 13.5463C249.889 13.8822 249.792 14.1486 249.597 14.3456C249.414 14.5425 249.174 14.6409 248.877 14.6409C248.568 14.6409 248.328 14.5541 248.156 14.3803C247.985 14.195 247.899 13.9691 247.899 13.7027C247.899 13.4942 247.945 13.3263 248.036 13.1988C248.128 13.0598 248.236 12.9614 248.362 12.9035V12.8514C248.225 12.8166 248.048 12.7992 247.83 12.7992C246.916 12.7992 246.458 13.4537 246.458 14.7625V16.1699H248.311V17.1776H246.458V24.2664H247.968V25.2046H243.37V24.2664Z" fill="#0F2A3D"/>
<path d="M253.48 25.4131C252.394 25.4131 251.622 25.1351 251.164 24.5792C250.707 24.0116 250.478 23.166 250.478 22.0425V17.5598L249.312 17.334V16.5695L252.399 15.9614V21.9382C252.399 22.6911 252.542 23.2413 252.828 23.5888C253.114 23.9363 253.566 24.11 254.183 24.11C254.412 24.11 254.635 24.0811 254.852 24.0232C255.081 23.9537 255.281 23.8552 255.453 23.7278C255.636 23.5888 255.779 23.4208 255.882 23.2239C255.996 23.027 256.053 22.7896 256.053 22.5116V17.5598L254.887 17.334V16.5695L257.974 15.9614V23.8147L259.141 24.0405V24.805L256.105 25.4131V23.7973H256.019C255.95 23.9942 255.842 24.1911 255.693 24.388C255.556 24.5849 255.378 24.7587 255.161 24.9093C254.955 25.0598 254.709 25.1815 254.424 25.2741C254.149 25.3668 253.835 25.4131 253.48 25.4131Z" fill="#0F2A3D"/>
<path d="M260.425 24.2664H261.591V17.5598L260.425 17.334V16.5695L263.461 15.9614V17.5772H263.547C263.616 17.3803 263.719 17.1834 263.856 16.9865C264.004 16.7896 264.182 16.6158 264.388 16.4653C264.605 16.3147 264.851 16.1931 265.125 16.1004C265.411 16.0077 265.731 15.9614 266.086 15.9614C267.172 15.9614 267.944 16.2452 268.402 16.8127C268.859 17.3687 269.088 18.2085 269.088 19.332V24.2664H270.254V25.2046H266.034V24.2664H267.167V19.4363C267.167 18.6834 267.024 18.1332 266.738 17.7857C266.452 17.4382 266 17.2645 265.383 17.2645C265.154 17.2645 264.925 17.2992 264.696 17.3687C264.479 17.4266 264.279 17.5251 264.096 17.6641C263.924 17.7915 263.781 17.9537 263.667 18.1506C263.564 18.3475 263.513 18.5849 263.513 18.8629V24.2664H264.645V25.2046H260.425V24.2664Z" fill="#0F2A3D"/>
<path d="M275.7 25.4131C275.025 25.4131 274.424 25.2973 273.898 25.0656C273.384 24.834 272.949 24.5097 272.595 24.0927C272.24 23.6757 271.971 23.1776 271.788 22.5985C271.605 22.0193 271.514 21.3822 271.514 20.6873C271.514 19.9459 271.623 19.2857 271.84 18.7066C272.057 18.1158 272.36 17.6178 272.749 17.2124C273.138 16.807 273.595 16.5 274.121 16.2915C274.659 16.0714 275.242 15.9614 275.871 15.9614C276.855 15.9614 277.621 16.1699 278.17 16.5869C278.73 17.0039 279.01 17.5367 279.01 18.1853C279.01 18.5907 278.902 18.9093 278.684 19.1409C278.467 19.361 278.175 19.471 277.809 19.471C277.432 19.471 277.146 19.3668 276.952 19.1583C276.757 18.9382 276.66 18.666 276.66 18.3417C276.66 18.0753 276.729 17.8436 276.866 17.6467C277.003 17.4498 277.181 17.305 277.398 17.2124V17.1255C277.261 17.0676 277.089 17.0154 276.883 16.9691C276.677 16.9112 276.42 16.8822 276.111 16.8822C275.734 16.8822 275.391 16.9517 275.082 17.0907C274.773 17.2297 274.51 17.4266 274.293 17.6815C274.076 17.9247 273.904 18.2201 273.778 18.5676C273.664 18.9151 273.607 19.3031 273.607 19.7317V21.2432C273.607 22.112 273.818 22.8012 274.241 23.3108C274.665 23.8089 275.242 24.0579 275.974 24.0579C276.66 24.0579 277.192 23.9073 277.569 23.6062C277.958 23.305 278.255 22.9344 278.461 22.4942L279.199 22.9459C279.096 23.2471 278.947 23.5425 278.753 23.832C278.559 24.1216 278.318 24.388 278.032 24.6313C277.747 24.8629 277.409 25.0541 277.02 25.2046C276.632 25.3436 276.191 25.4131 275.7 25.4131Z" fill="#0F2A3D"/>
<path d="M283.289 25.3436C282.637 25.3436 282.179 25.2046 281.916 24.9266C281.653 24.6486 281.522 24.2085 281.522 23.6062V17.1776H280.355V16.1699H280.647C281.07 16.1699 281.362 16.0946 281.522 15.944C281.682 15.7934 281.813 15.5734 281.916 15.2838L282.448 13.7548H283.443V16.1699H285.587V17.1776H283.443V24.2143H285.587V24.9788C285.393 25.0714 285.078 25.1525 284.644 25.222C284.221 25.3031 283.769 25.3436 283.289 25.3436Z" fill="#0F2A3D"/>
<path d="M288.936 14.4846C288.57 14.4846 288.285 14.3803 288.079 14.1718C287.873 13.9517 287.77 13.6737 287.77 13.3378V13.2336C287.77 12.8977 287.873 12.6255 288.079 12.417C288.285 12.1969 288.57 12.0869 288.936 12.0869C289.302 12.0869 289.588 12.1969 289.794 12.417C290 12.6255 290.103 12.8977 290.103 13.2336V13.3378C290.103 13.6737 290 13.9517 289.794 14.1718C289.588 14.3803 289.302 14.4846 288.936 14.4846ZM286.809 24.2664H287.976V17.5598L286.809 17.334V16.5695L289.897 15.9614V24.2664H291.063V25.2046H286.809V24.2664Z" fill="#0F2A3D"/>
<path d="M296.505 24.388C297.226 24.388 297.752 24.1622 298.084 23.7104C298.427 23.2587 298.598 22.6564 298.598 21.9035V19.471C298.598 18.7181 298.427 18.1158 298.084 17.6641C297.752 17.2124 297.226 16.9865 296.505 16.9865C295.785 16.9865 295.253 17.2124 294.91 17.6641C294.578 18.1158 294.413 18.7181 294.413 19.471V21.9035C294.413 22.6564 294.578 23.2587 294.91 23.7104C295.253 24.1622 295.785 24.388 296.505 24.388ZM296.505 25.4131C295.876 25.4131 295.305 25.3031 294.79 25.083C294.275 24.8629 293.835 24.5502 293.469 24.1448C293.103 23.7394 292.817 23.2471 292.611 22.668C292.417 22.0772 292.32 21.417 292.32 20.6873C292.32 19.9575 292.417 19.3031 292.611 18.7239C292.817 18.1332 293.103 17.6351 293.469 17.2297C293.835 16.8243 294.275 16.5116 294.79 16.2915C295.305 16.0714 295.876 15.9614 296.505 15.9614C297.134 15.9614 297.706 16.0714 298.221 16.2915C298.735 16.5116 299.176 16.8243 299.542 17.2297C299.908 17.6351 300.188 18.1332 300.382 18.7239C300.588 19.3031 300.691 19.9575 300.691 20.6873C300.691 21.417 300.588 22.0772 300.382 22.668C300.188 23.2471 299.908 23.7394 299.542 24.1448C299.176 24.5502 298.735 24.8629 298.221 25.083C297.706 25.3031 297.134 25.4131 296.505 25.4131Z" fill="#0F2A3D"/>
<path d="M302.171 24.2664H303.337V17.5598L302.171 17.334V16.5695L305.207 15.9614V17.5772H305.293C305.361 17.3803 305.464 17.1834 305.602 16.9865C305.75 16.7896 305.927 16.6158 306.133 16.4653C306.351 16.3147 306.596 16.1931 306.871 16.1004C307.157 16.0077 307.477 15.9614 307.832 15.9614C308.918 15.9614 309.69 16.2452 310.147 16.8127C310.605 17.3687 310.834 18.2085 310.834 19.332V24.2664H312V25.2046H307.78V24.2664H308.912V19.4363C308.912 18.6834 308.769 18.1332 308.483 17.7857C308.198 17.4382 307.746 17.2645 307.128 17.2645C306.9 17.2645 306.671 17.2992 306.442 17.3687C306.225 17.4266 306.025 17.5251 305.842 17.6641C305.67 17.7915 305.527 17.9537 305.413 18.1506C305.31 18.3475 305.258 18.5849 305.258 18.8629V24.2664H306.391V25.2046H302.171V24.2664Z" fill="#0F2A3D"/>
<path d="M131.899 48C131.007 48 130.332 47.7799 129.875 47.3398C129.429 46.888 129.206 46.2741 129.206 45.4981C129.206 44.6178 129.515 43.9517 130.132 43.5C130.75 43.0483 131.756 42.8224 133.151 42.8224H134.386V41.6409C134.386 40.9344 134.232 40.3958 133.923 40.0251C133.614 39.6544 133.128 39.4691 132.465 39.4691C131.905 39.4691 131.482 39.5502 131.196 39.7124V39.7819C131.321 39.8398 131.436 39.944 131.539 40.0946C131.653 40.2336 131.71 40.4305 131.71 40.6853C131.71 41.0097 131.613 41.2703 131.419 41.4672C131.236 41.6641 130.967 41.7625 130.612 41.7625C130.315 41.7625 130.063 41.6641 129.858 41.4672C129.663 41.2587 129.566 40.9807 129.566 40.6332C129.566 40.3668 129.64 40.112 129.789 39.8687C129.949 39.6139 130.178 39.388 130.475 39.1911C130.772 38.9942 131.133 38.8378 131.556 38.722C131.99 38.6062 132.488 38.5483 133.048 38.5483C134.123 38.5483 134.935 38.8031 135.484 39.3127C136.033 39.8224 136.307 40.5347 136.307 41.4498V46.8707H137.474V47.6525C137.314 47.7452 137.108 47.8263 136.856 47.8958C136.605 47.9652 136.336 48 136.05 48C135.524 48 135.135 47.8668 134.884 47.6004C134.644 47.3224 134.523 46.9691 134.523 46.5405V46.4537H134.438C134.358 46.6506 134.255 46.8417 134.129 47.027C134.003 47.2008 133.837 47.3629 133.631 47.5135C133.437 47.6641 133.197 47.7799 132.911 47.861C132.625 47.9537 132.288 48 131.899 48ZM132.654 46.7838C133.157 46.7838 133.569 46.6622 133.889 46.4189C134.22 46.1757 134.386 45.7761 134.386 45.2201V43.6737H133.357C132.545 43.6737 131.979 43.807 131.659 44.0734C131.339 44.3398 131.178 44.722 131.178 45.2201V45.5502C131.178 45.9672 131.31 46.2799 131.573 46.4884C131.836 46.6853 132.196 46.7838 132.654 46.7838Z" fill="#0F2A3D"/>
<path d="M141.4 47.9305C140.748 47.9305 140.291 47.7915 140.028 47.5135C139.765 47.2355 139.633 46.7954 139.633 46.193V39.7645H138.467V38.7568H138.758C139.181 38.7568 139.473 38.6815 139.633 38.5309C139.793 38.3803 139.925 38.1602 140.028 37.8707L140.56 36.3417H141.554V38.7568H143.699V39.7645H141.554V46.8012H143.699V47.5656C143.504 47.6583 143.19 47.7394 142.755 47.8089C142.332 47.89 141.88 47.9305 141.4 47.9305Z" fill="#0F2A3D"/>
<path d="M151.465 48C150.573 48 149.898 47.7799 149.441 47.3398C148.995 46.888 148.772 46.2741 148.772 45.4981C148.772 44.6178 149.081 43.9517 149.698 43.5C150.316 43.0483 151.322 42.8224 152.717 42.8224H153.952V41.6409C153.952 40.9344 153.798 40.3958 153.489 40.0251C153.181 39.6544 152.695 39.4691 152.031 39.4691C151.471 39.4691 151.048 39.5502 150.762 39.7124V39.7819C150.888 39.8398 151.002 39.944 151.105 40.0946C151.219 40.2336 151.276 40.4305 151.276 40.6853C151.276 41.0097 151.179 41.2703 150.985 41.4672C150.802 41.6641 150.533 41.7625 150.179 41.7625C149.881 41.7625 149.63 41.6641 149.424 41.4672C149.229 41.2587 149.132 40.9807 149.132 40.6332C149.132 40.3668 149.207 40.112 149.355 39.8687C149.515 39.6139 149.744 39.388 150.041 39.1911C150.339 38.9942 150.699 38.8378 151.122 38.722C151.557 38.6062 152.054 38.5483 152.614 38.5483C153.689 38.5483 154.501 38.8031 155.05 39.3127C155.599 39.8224 155.874 40.5347 155.874 41.4498V46.8707H157.04V47.6525C156.88 47.7452 156.674 47.8263 156.423 47.8958C156.171 47.9652 155.902 48 155.616 48C155.09 48 154.702 47.8668 154.45 47.6004C154.21 47.3224 154.09 46.9691 154.09 46.5405V46.4537H154.004C153.924 46.6506 153.821 46.8417 153.695 47.027C153.569 47.2008 153.404 47.3629 153.198 47.5135C153.003 47.6641 152.763 47.7799 152.477 47.861C152.191 47.9537 151.854 48 151.465 48ZM152.22 46.7838C152.723 46.7838 153.135 46.6622 153.455 46.4189C153.787 46.1757 153.952 45.7761 153.952 45.2201V43.6737H152.923C152.111 43.6737 151.545 43.807 151.225 44.0734C150.905 44.3398 150.745 44.722 150.745 45.2201V45.5502C150.745 45.9672 150.876 46.2799 151.139 46.4884C151.402 46.6853 151.762 46.7838 152.22 46.7838Z" fill="#0F2A3D"/>
<path d="M165.054 47.9305C164.402 47.9305 163.944 47.7915 163.681 47.5135C163.418 47.2355 163.287 46.7954 163.287 46.193V39.7645H162.12V38.7568H162.412C162.835 38.7568 163.127 38.6815 163.287 38.5309C163.447 38.3803 163.579 38.1602 163.681 37.8707L164.213 36.3417H165.208V38.7568H167.352V39.7645H165.208V46.8012H167.352V47.5656C167.158 47.6583 166.843 47.7394 166.409 47.8089C165.986 47.89 165.534 47.9305 165.054 47.9305Z" fill="#FEFEFE"/>
<path d="M170.701 37.0714C170.335 37.0714 170.05 36.9672 169.844 36.7587C169.638 36.5386 169.535 36.2606 169.535 35.9247V35.8205C169.535 35.4846 169.638 35.2124 169.844 35.0039C170.05 34.7838 170.335 34.6737 170.701 34.6737C171.067 34.6737 171.353 34.7838 171.559 35.0039C171.765 35.2124 171.868 35.4846 171.868 35.8205V35.9247C171.868 36.2606 171.765 36.5386 171.559 36.7587C171.353 36.9672 171.067 37.0714 170.701 37.0714ZM168.574 46.8533H169.741V40.1467L168.574 39.9208V39.1564L171.662 38.5483V46.8533H172.829V47.7915H168.574V46.8533Z" fill="#FEFEFE"/>
<path d="M174.119 46.8533H175.286V40.1467L174.119 39.9208V39.1564L177.155 38.5483V40.1641H177.241C177.31 39.9672 177.413 39.7703 177.55 39.5734C177.687 39.3764 177.859 39.2027 178.065 39.0521C178.27 38.9015 178.511 38.7799 178.785 38.6873C179.06 38.5946 179.374 38.5483 179.729 38.5483C180.495 38.5483 181.095 38.6931 181.53 38.9826C181.976 39.2606 182.284 39.695 182.456 40.2857H182.508C182.599 40.0772 182.719 39.8687 182.868 39.6602C183.028 39.4517 183.217 39.2664 183.434 39.1042C183.651 38.9305 183.903 38.7973 184.189 38.7046C184.474 38.6004 184.806 38.5483 185.184 38.5483C186.247 38.5483 187.002 38.832 187.448 39.3996C187.894 39.9556 188.117 40.7954 188.117 41.9189V46.8533H189.283V47.7915H185.098V46.8533H186.196V42.0232C186.196 41.2703 186.053 40.7201 185.767 40.3726C185.492 40.0251 185.063 39.8514 184.48 39.8514C184.251 39.8514 184.028 39.8861 183.811 39.9556C183.594 40.0135 183.4 40.112 183.228 40.251C183.056 40.3784 182.919 40.5463 182.816 40.7548C182.713 40.9517 182.662 41.1892 182.662 41.4672V46.8533H183.76V47.7915H179.643V46.8533H180.741V42.0232C180.741 41.2703 180.598 40.7201 180.312 40.3726C180.037 40.0251 179.608 39.8514 179.025 39.8514C178.797 39.8514 178.574 39.8861 178.356 39.9556C178.139 40.0135 177.945 40.112 177.773 40.251C177.601 40.3784 177.464 40.5463 177.361 40.7548C177.258 40.9517 177.207 41.1892 177.207 41.4672V46.8533H178.305V47.7915H174.119V46.8533Z" fill="#FEFEFE"/>
<path d="M194.687 48C194.024 48 193.435 47.89 192.92 47.6699C192.405 47.4382 191.971 47.1139 191.616 46.6969C191.262 46.2799 190.987 45.7819 190.793 45.2027C190.61 44.6236 190.519 43.9807 190.519 43.2741C190.519 42.556 190.616 41.9073 190.81 41.3282C191.016 40.749 191.296 40.2568 191.651 39.8514C192.017 39.4344 192.445 39.1158 192.937 38.8958C193.44 38.6641 193.989 38.5483 194.584 38.5483C195.19 38.5483 195.733 38.6525 196.214 38.861C196.694 39.0579 197.1 39.3417 197.432 39.7124C197.775 40.083 198.038 40.529 198.221 41.0502C198.404 41.5714 198.495 42.1506 198.495 42.7876V43.2568H192.594V43.8127C192.594 44.7162 192.817 45.417 193.263 45.9151C193.709 46.4015 194.31 46.6448 195.064 46.6448C195.728 46.6448 196.259 46.5 196.66 46.2104C197.071 45.9093 197.374 45.5386 197.569 45.0985L198.306 45.5502C198.203 45.8514 198.049 46.1467 197.843 46.4363C197.649 46.7259 197.403 46.9865 197.106 47.2181C196.808 47.4498 196.46 47.6409 196.059 47.7915C195.659 47.9305 195.202 48 194.687 48ZM192.594 42.3359H196.505V42.1448C196.505 41.3108 196.345 40.668 196.025 40.2162C195.716 39.7529 195.236 39.5212 194.584 39.5212C193.944 39.5212 193.452 39.7471 193.109 40.1988C192.766 40.639 192.594 41.2761 192.594 42.11V42.3359Z" fill="#FEFEFE"/>
</g>
<defs>
<filter id="filter0_d_1493_2951" x="0.4" y="0.4" width="327.2" height="67.2" filterUnits="userSpaceOnUse" color-interpolation-filters="sRGB">
<feFlood flood-opacity="0" result="BackgroundImageFix"/>
<feColorMatrix in="SourceAlpha" type="matrix" values="0 0 0 0 0 0 0 0 0 0 0 0 0 0 0 0 0 0 127 0" result="hardAlpha"/>
<feOffset dy="4"/>
<feGaussianBlur stdDeviation="7.8"/>
<feComposite in2="hardAlpha" operator="out"/>
<feColorMatrix type="matrix" values="0 0 0 0 0 0 0 0 0 0 0 0 0 0 0 0 0 0 0.25 0"/>
<feBlend mode="normal" in2="BackgroundImageFix" result="effect1_dropShadow_1493_2951"/>
<feBlend mode="normal" in="SourceGraphic" in2="effect1_dropShadow_1493_2951" result="shape"/>
</filter>
</defs>
</svg>
