<svg width="92" height="40" viewBox="0 0 92 40" fill="none" xmlns="http://www.w3.org/2000/svg">
<path d="M14.5838 35.2971C12.3862 35.2971 10.3885 34.8897 8.59046 34.0749C6.79245 33.2601 5.26082 32.0868 3.99556 30.555C2.7303 29.0231 1.74806 27.1654 1.04883 24.9817C0.349611 22.7981 0 20.3537 0 17.6485C0 14.813 0.349611 12.3035 1.04883 10.1198C1.74806 7.93614 2.71365 6.09469 3.94562 4.59546C5.21088 3.09623 6.72586 1.95552 8.49057 1.17331C10.2553 0.391103 12.2031 0 14.3341 0C16.4983 0 18.2963 0.358512 19.7281 1.07554C21.1931 1.75997 22.1587 2.62365 22.6249 3.66659H22.8246V0.586656H26.4206V10.5598H22.8246V8.01762C22.8246 6.38802 22.0921 5.08435 20.6271 4.10659C19.162 3.09624 17.2475 2.59106 14.8835 2.59106C13.1188 2.59106 11.5871 2.91698 10.2886 3.56882C9.02331 4.18807 7.97447 5.05175 7.14206 6.15988C6.34295 7.23541 5.74362 8.5065 5.34406 9.97314C4.9778 11.4072 4.79467 12.9227 4.79467 14.5197V20.4352C4.79467 22.2277 5.02775 23.841 5.4939 25.2751C5.99334 26.7091 6.69256 27.9476 7.59156 28.9905C8.52386 30.0009 9.65594 30.7831 10.9878 31.3372C12.3196 31.8912 13.8346 32.1683 15.5327 32.1683C17.8968 32.1683 19.8779 31.5653 21.4761 30.3594C23.0744 29.1535 24.2397 27.6217 24.9723 25.7639L26.9201 26.6928C26.6204 27.638 26.1376 28.6157 25.4717 29.6261C24.8058 30.6364 23.9567 31.5653 22.9245 32.4127C21.9256 33.2601 20.727 33.9608 19.3285 34.5149C17.9301 35.0364 16.3485 35.2971 14.5838 35.2971Z" fill="#67D3DF"/>
<path d="M30.3417 31.0271C30.3417 29.9545 30.3639 28.7359 30.4085 27.3712C30.4174 27.0399 31.1612 26.8306 32.64 26.7434C32.6668 26.6605 32.6668 26.5581 32.64 26.436C31.473 26.4709 30.5621 26.4883 29.9074 26.4883C29.3595 26.4883 28.5845 26.4709 27.5823 26.436C27.5422 26.5145 27.5422 26.6169 27.5823 26.7434C28.6023 26.8393 29.1167 27.0486 29.1257 27.3712C29.1702 28.3958 29.1925 29.6145 29.1925 31.0271V35.6901C29.1925 36.9589 29.0989 37.8462 28.9118 38.3519C28.7248 38.862 28.335 39.1171 27.7426 39.1171C27.315 39.1171 26.9854 39.0037 26.7538 38.777C26.5266 38.5503 26.413 38.2887 26.413 37.9922C26.413 37.7611 26.4732 37.578 26.5934 37.4429C26.7137 37.3077 26.8562 37.2401 27.021 37.2401C27.1725 37.2401 27.3039 37.2946 27.4152 37.4036C27.5266 37.3774 27.6001 37.3012 27.6357 37.1747C27.4709 36.9436 27.2281 36.8281 26.9074 36.8281C26.5867 36.8281 26.3284 36.9284 26.1324 37.1289C25.9364 37.3295 25.8384 37.6085 25.8384 37.9661C25.8384 38.3846 26.0055 38.7487 26.3395 39.0582C26.6736 39.3722 27.1413 39.5291 27.7426 39.5291C27.9876 39.5291 28.2103 39.503 28.4107 39.4506C28.6112 39.3983 28.7938 39.3111 28.9586 39.189C29.1234 39.0713 29.2682 38.9383 29.3929 38.7901C29.5176 38.6419 29.6268 38.4391 29.7203 38.1819C29.8183 37.929 29.9007 37.6805 29.9675 37.4363C30.0343 37.1922 30.09 36.8782 30.1345 36.4945C30.1835 36.1109 30.2214 35.7468 30.2481 35.4024C30.2748 35.0579 30.2949 34.6263 30.3083 34.1074C30.3216 33.5886 30.3305 33.109 30.335 32.6686C30.3394 32.2283 30.3417 31.6811 30.3417 31.0271ZM27.9096 39.7973C27.1435 39.7973 26.5645 39.6185 26.1725 39.261C25.7761 38.9078 25.5734 38.4762 25.5645 37.9661C25.5556 37.517 25.687 37.1682 25.9587 36.9197C26.2259 36.6711 26.5377 36.5469 26.8941 36.5469C27.2326 36.5469 27.5244 36.6581 27.7693 36.8804C28.0143 37.1028 28.1368 37.4101 28.1368 37.8026C28.1368 37.9726 28.1101 38.1143 28.0566 38.2277C28.0032 38.3454 27.9431 38.4369 27.8762 38.5023C27.8139 38.5721 27.7782 38.6201 27.7693 38.6462C27.805 38.7291 27.8829 38.7879 28.0032 38.8228C28.3773 38.7443 28.6223 38.4675 28.7381 37.9922C28.8584 37.517 28.9185 36.7496 28.9185 35.6901V31.0271C28.9185 29.6232 28.8963 28.4089 28.8517 27.3843C28.8428 27.223 28.3462 27.0944 27.3618 26.9984C27.286 26.7107 27.295 26.4295 27.3885 26.1548C28.1724 26.1984 29.1702 26.2202 30.3817 26.2202C30.5644 26.2202 30.9296 26.2158 31.4775 26.2071C32.0254 26.1984 32.5042 26.194 32.914 26.194C32.9986 26.4425 33.0031 26.7107 32.9273 26.9984C31.943 27.0944 31.4463 27.223 31.4374 27.3843C31.3839 28.4743 31.3572 29.8499 31.3572 31.5111C31.3572 32.2174 31.3483 32.843 31.3305 33.388C31.3127 33.9287 31.2726 34.4998 31.2102 35.1015C31.1523 35.6988 31.0722 36.2155 30.9697 36.6515C30.8717 37.0919 30.7359 37.5192 30.5621 37.9334C30.3884 38.3476 30.1813 38.6833 29.9408 38.9405C29.7002 39.2021 29.4085 39.4092 29.0655 39.5618C28.7225 39.7188 28.3372 39.7973 27.9096 39.7973Z" fill="#FEFEFE"/>
<path d="M39.0857 30.5301C39.5445 30.5301 39.9075 30.7459 40.1748 31.1775C40.4465 31.6048 40.5823 32.2697 40.5823 33.1722C40.5823 34.0747 40.4465 34.7396 40.1748 35.1669C39.9075 35.5942 39.5445 35.8078 39.0857 35.8078C38.8318 35.8078 38.6002 35.7555 38.3908 35.6509C38.1859 35.5462 38.01 35.3849 37.863 35.1669C37.7205 34.9489 37.6091 34.6764 37.5289 34.3494C37.4488 34.0181 37.4087 33.6257 37.4087 33.1722C37.4087 32.7231 37.4488 32.3329 37.5289 32.0016C37.6091 31.6658 37.7205 31.3912 37.863 31.1775C38.01 30.9595 38.1859 30.7982 38.3908 30.6936C38.6002 30.5846 38.8318 30.5301 39.0857 30.5301ZM39.0857 36.2395C39.4999 36.2395 39.8719 36.1632 40.2015 36.0106C40.5311 35.858 40.8117 35.6465 41.0433 35.3762C41.2794 35.1015 41.4598 34.7767 41.5845 34.4017C41.7092 34.0268 41.7716 33.6169 41.7716 33.1722C41.7716 32.7275 41.7092 32.3177 41.5845 31.9427C41.4598 31.5677 41.2794 31.2451 41.0433 30.9748C40.8117 30.7001 40.5311 30.4865 40.2015 30.3339C39.8719 30.1813 39.4999 30.105 39.0857 30.105C38.6447 30.105 38.2461 30.1813 37.8897 30.3339C37.5334 30.4865 37.2305 30.6979 36.9811 30.9682C36.7361 31.2386 36.5468 31.5634 36.4131 31.9427C36.2795 32.3177 36.2127 32.7275 36.2127 33.1722C36.2127 33.6213 36.2795 34.0333 36.4131 34.4083C36.5468 34.7832 36.7361 35.1081 36.9811 35.3827C37.2305 35.6531 37.5334 35.8645 37.8897 36.0171C38.2461 36.1654 38.6447 36.2395 39.0857 36.2395ZM39.3195 29.8368C39.8585 29.8368 40.3373 29.9175 40.756 30.0788C41.1792 30.2401 41.5355 30.469 41.825 30.7655C42.1146 31.0576 42.3351 31.4086 42.4865 31.8184C42.6379 32.2283 42.7137 32.6795 42.7137 33.1722C42.7137 33.6605 42.6379 34.1096 42.4865 34.5195C42.3351 34.9293 42.1146 35.2825 41.825 35.5789C41.54 35.8711 41.1859 36.0978 40.7627 36.2591C40.3396 36.4248 39.8585 36.5076 39.3195 36.5076C38.785 36.5076 38.3062 36.4248 37.883 36.2591C37.4643 36.0978 37.1102 35.8711 36.8207 35.5789C36.5356 35.2825 36.3174 34.9315 36.1659 34.526C36.0145 34.1162 35.9388 33.6649 35.9388 33.1722C35.9388 32.6795 36.0145 32.2283 36.1659 31.8184C36.3174 31.4086 36.5379 31.0576 36.8274 30.7655C37.1169 30.469 37.471 30.2401 37.8897 30.0788C38.3084 29.9175 38.785 29.8368 39.3195 29.8368ZM38.3507 33.1722C38.3507 34.5805 38.6737 35.3609 39.3195 35.5135C39.9788 35.3609 40.3084 34.5805 40.3084 33.1722C40.3084 31.777 39.9788 30.9944 39.3195 30.8244C38.6737 30.9944 38.3507 31.777 38.3507 33.1722Z" fill="#FEFEFE"/>
<path d="M50.5223 34.4671C50.5579 33.3771 50.5579 32.285 50.5223 31.1906C50.5223 31.038 50.186 30.9072 49.5134 30.7982C49.411 30.5322 49.411 30.2685 49.5134 30.0069H52.3998C52.5245 30.0548 52.6136 30.1071 52.667 30.1638C52.7249 30.2205 52.7761 30.3033 52.8207 30.4123C52.8207 30.4908 52.8096 30.6151 52.7873 30.7851C52.765 30.9552 52.7539 31.0903 52.7539 31.1906C52.7093 32.625 52.7093 33.8742 52.7539 34.938C53.0746 35.0383 53.4131 35.0972 53.7694 35.1146C53.8674 35.3718 53.8674 35.6487 53.7694 35.9452C53.1859 35.9801 52.4644 36.1763 51.6047 36.5338C51.1192 36.4989 50.7584 36.355 50.5223 36.1021V35.9321C49.9121 36.3158 49.1883 36.5076 48.3509 36.5076C47.7451 36.5076 47.3153 36.3463 47.0614 36.0237C46.8075 35.701 46.6761 35.1953 46.6672 34.5064C46.6761 33.412 46.6761 32.3068 46.6672 31.1906C46.6672 31.038 46.3286 30.9072 45.6516 30.7982C45.5536 30.5322 45.5536 30.2685 45.6516 30.0069H48.5513C48.6805 30.0548 48.7718 30.1071 48.8252 30.1638C48.8831 30.2205 48.9344 30.3033 48.9789 30.4123C48.9789 30.4908 48.9678 30.6151 48.9455 30.7851C48.9232 30.9552 48.9121 31.0903 48.9121 31.1906C48.8809 32.2065 48.8809 33.242 48.9121 34.2971C48.9299 34.7941 49.0212 35.0841 49.186 35.1669C49.5112 35.0841 49.9566 34.8508 50.5223 34.4671ZM50.7962 31.1906C50.823 32.3242 50.823 33.4622 50.7962 34.6045C49.9678 35.1844 49.3286 35.4743 48.8787 35.4743C48.2685 35.4743 47.9633 35.0819 47.9633 34.2971C47.9366 33.242 47.9366 32.2065 47.9633 31.1906C47.9633 31.0729 47.9745 30.9312 47.9967 30.7655C48.0235 30.5998 48.0368 30.4952 48.0368 30.4516C47.9878 30.3513 47.9233 30.2837 47.8431 30.2488C47.1838 30.2924 46.5269 30.2924 45.8721 30.2488C45.8364 30.3491 45.8364 30.4516 45.8721 30.5562C46.5758 30.6652 46.9322 30.8767 46.9411 31.1906C46.95 32.298 46.95 33.4033 46.9411 34.5064C46.9322 35.0993 47.0369 35.5375 47.2551 35.8209C47.4734 36.1 47.8386 36.2395 48.3509 36.2395C49.0235 36.2395 49.8386 35.8318 50.7962 35.0165V35.9713C50.8319 36.0411 50.9098 36.0978 51.0301 36.1414C51.667 35.9103 52.4933 35.7555 53.5089 35.677C53.5445 35.568 53.5445 35.4656 53.5089 35.3697C52.7427 35.3391 52.1771 35.2498 51.8118 35.1015C51.7762 33.545 51.7762 32.2414 51.8118 31.1906C51.8118 31.0729 51.8229 30.9312 51.8452 30.7655C51.8675 30.5998 51.8786 30.4952 51.8786 30.4516C51.8341 30.3513 51.7695 30.2837 51.6849 30.2488C51.039 30.2837 50.3865 30.2837 49.7272 30.2488C49.6916 30.3491 49.6916 30.4516 49.7272 30.5562C50.431 30.6652 50.7873 30.8767 50.7962 31.1906Z" fill="#FEFEFE"/>
<path d="M59.2129 32.3678C59.3242 31.9667 59.5536 31.5765 59.9011 31.1971C60.2485 30.8178 60.6026 30.6282 60.9634 30.6282C61.3866 30.6282 61.5981 30.7611 61.5981 31.0271C61.5981 31.2669 61.4823 31.4195 61.2507 31.4849C61.1883 31.5721 61.1883 31.6746 61.2507 31.7923C61.4912 31.7923 61.6872 31.7203 61.8387 31.5765C61.9946 31.4326 62.0725 31.232 62.0725 30.9748C62.0725 30.7045 61.9879 30.493 61.8186 30.3404C61.6538 30.1834 61.4378 30.105 61.1705 30.105C60.8231 30.105 60.4734 30.2423 60.1215 30.517C59.7741 30.7873 59.4712 31.0903 59.2129 31.426V30.3012C59.1772 30.2314 59.1015 30.1747 58.9857 30.1311C58.3889 30.4058 57.6984 30.5846 56.9145 30.6674C56.8878 30.772 56.8878 30.8745 56.9145 30.9748C57.5158 31.0009 57.9457 31.0903 58.204 31.2429C58.2396 32.8692 58.2352 34.1728 58.1906 35.1538C58.1817 35.4765 57.8031 35.6858 57.0548 35.7817C56.988 35.8994 56.988 36.0019 57.0548 36.0891C58.2218 36.0368 59.4935 36.0368 60.8699 36.0891C60.9322 36.0019 60.9322 35.8994 60.8699 35.7817C59.8142 35.6858 59.2819 35.4765 59.273 35.1538C59.2329 34.2688 59.2129 33.3401 59.2129 32.3678ZM60.2151 35.1408C60.224 35.3108 60.5247 35.4438 61.1171 35.5397C61.2641 35.8275 61.2552 36.1043 61.0903 36.3703C59.2017 36.3092 57.7742 36.2962 56.8076 36.3311C56.6428 36.0738 56.6339 35.81 56.7809 35.5397C57.5292 35.4438 57.9078 35.3108 57.9167 35.1408C57.9702 33.8982 57.9746 32.6512 57.9301 31.3999C57.6361 31.3127 57.2307 31.256 56.7141 31.2298C56.6116 30.9682 56.6116 30.6914 56.7141 30.3993C57.4579 30.3557 58.2463 30.1595 59.0793 29.8107C59.5603 29.863 59.9211 30.0047 60.1616 30.2358C60.5358 29.9698 60.8721 29.8368 61.1705 29.8368C61.518 29.8368 61.8008 29.9371 62.0191 30.1377C62.2373 30.3382 62.3464 30.6173 62.3464 30.9748C62.3464 31.3149 62.244 31.5808 62.0391 31.7727C61.8342 31.9645 61.5714 32.0604 61.2507 32.0604C60.9523 32.0604 60.7028 31.9623 60.5024 31.7661C60.3198 32.0059 60.2062 32.2239 60.1616 32.4201C60.1616 33.3662 60.1795 34.2731 60.2151 35.1408Z" fill="#FEFEFE"/>
<path d="M69.8611 35.749C69.8077 35.8493 69.8077 35.9561 69.8611 36.0695C71.0192 36.0433 72.1795 36.0433 73.3421 36.0695C73.4045 35.9648 73.4045 35.858 73.3421 35.749C72.2553 35.6967 71.7074 35.4874 71.6985 35.1211L71.6317 31.8315C71.6094 31.2342 71.5092 30.7982 71.331 30.5235C71.1573 30.2445 70.8499 30.105 70.409 30.105C69.6696 30.105 68.7899 30.6042 67.7698 31.6026V30.3012C67.7342 30.2314 67.6562 30.1747 67.536 30.1311C66.9168 30.4145 66.2732 30.5933 65.6051 30.6674C65.5784 30.772 65.5784 30.8745 65.6051 30.9748C66.1173 31.0009 66.4959 31.0903 66.7409 31.2429C66.7899 32.5466 66.7899 33.8393 66.7409 35.1211C66.732 35.4438 66.3489 35.6531 65.5917 35.749C65.5383 35.8493 65.5383 35.9561 65.5917 36.0695C66.7498 36.0258 67.9146 36.0258 69.0861 36.0695C69.1395 35.9561 69.1395 35.8493 69.0861 35.749C68.2531 35.6618 67.8322 35.4525 67.8233 35.1211C67.7877 34.2143 67.7698 33.1809 67.7698 32.0212C68.6651 31.2495 69.3667 30.8636 69.8745 30.8636C70.36 30.8636 70.6027 31.2582 70.6027 32.0473L70.5894 35.1211C70.5894 35.3348 70.5226 35.4852 70.3889 35.5724C70.2553 35.6552 70.0794 35.7141 69.8611 35.749ZM69.6473 36.2983C69.5359 36.0411 69.5359 35.7773 69.6473 35.507C69.7898 35.507 69.9368 35.4699 70.0883 35.3958C70.2397 35.3173 70.3154 35.2258 70.3154 35.1211L70.3288 32.0473C70.3288 31.5721 70.233 31.2822 70.0415 31.1775C69.7119 31.256 69.2687 31.4914 68.7119 31.8838C68.7119 33.0828 68.7297 34.1576 68.7654 35.1081C68.7876 35.3391 68.9658 35.4721 69.2999 35.507C69.4112 35.7773 69.4112 36.0411 69.2999 36.2983C67.9948 36.2547 66.683 36.2547 65.3645 36.2983C65.2532 36.0411 65.2532 35.7773 65.3645 35.507C66.0906 35.4111 66.4581 35.2781 66.467 35.1081C66.516 33.8785 66.516 32.6425 66.467 31.3999C66.1685 31.3127 65.8011 31.256 65.3645 31.2298C65.2621 30.9682 65.2621 30.6914 65.3645 30.3993C66.0371 30.3644 66.7944 30.1682 67.6362 29.8107C68.1173 29.8455 68.4758 29.9872 68.7119 30.2358V30.4516C69.3444 30.0417 70.0704 29.8368 70.89 29.8368C71.4914 29.8368 71.919 29.9981 72.1729 30.3208C72.4312 30.6391 72.5648 31.1426 72.5737 31.8315C72.5916 33.5624 72.6138 34.659 72.6405 35.1211C72.6495 35.2999 72.9635 35.4285 73.5826 35.507C73.6851 35.7948 73.6762 36.0585 73.5559 36.2983C72.2508 36.2722 70.9479 36.2722 69.6473 36.2983Z" fill="#FEFEFE"/>
<path d="M79.5539 30.5301C79.9102 30.5301 80.1686 30.6434 80.3289 30.8701C80.4893 31.0925 80.5695 31.3715 80.5695 31.7073C80.5695 31.8337 80.5472 31.9776 80.5026 32.1389H77.8969C78.035 31.5939 78.2577 31.1906 78.565 30.929C78.8768 30.663 79.2065 30.5301 79.5539 30.5301ZM77.8301 32.5836H81.4714C81.5427 32.3656 81.5783 32.1411 81.5783 31.91C81.5783 31.3999 81.4291 30.9726 81.1307 30.6282C80.8367 30.2794 80.3668 30.105 79.7209 30.105C78.8791 30.105 78.1708 30.4036 77.5962 31.0009C77.0216 31.5983 76.7344 32.3569 76.7344 33.2769C76.7344 34.2579 77.0083 34.9969 77.5562 35.4939C78.104 35.991 78.7477 36.2395 79.4871 36.2395C80.0349 36.2395 80.5427 36.0956 81.0104 35.8078C81.4826 35.5157 81.8278 35.0775 82.046 34.4933C81.9837 34.4235 81.8968 34.3756 81.7855 34.3494C81.7676 34.3756 81.7142 34.4475 81.6251 34.5652C81.5405 34.6786 81.4781 34.7614 81.438 34.8138C81.3979 34.8617 81.3244 34.9337 81.2175 35.0296C81.1151 35.1211 81.0149 35.1887 80.9169 35.2323C80.8233 35.2759 80.7031 35.3195 80.5561 35.3631C80.4091 35.4024 80.2487 35.422 80.075 35.422C79.3891 35.422 78.8434 35.2236 78.4381 34.8268C78.0328 34.4257 77.8212 33.8873 77.8034 33.2115C77.8034 33.0589 77.8123 32.8496 77.8301 32.5836ZM81.6786 34.042C81.9592 34.1031 82.1863 34.2404 82.3601 34.4541C82.1062 35.1342 81.7142 35.6465 81.1841 35.991C80.6541 36.3354 80.0884 36.5076 79.4871 36.5076C78.6675 36.5076 77.957 36.2373 77.3557 35.6967C76.7588 35.156 76.4604 34.3494 76.4604 33.2769C76.4604 32.3046 76.7655 31.4893 77.3758 30.8309C77.9904 30.1682 78.859 29.8368 79.9815 29.8368C81.6786 29.8368 82.5271 30.5279 82.5271 31.91C82.5271 32.1803 82.4625 32.4942 82.3333 32.8518H78.7454V33.2769C78.7677 33.8044 78.9147 34.2339 79.1864 34.5652C79.4581 34.8922 79.8323 35.0841 80.3089 35.1408C80.5895 35.1146 80.8211 35.0209 81.0037 34.8595C81.1864 34.6982 81.4113 34.4257 81.6786 34.042ZM80.2955 31.7073C80.2955 31.2277 80.1307 30.9377 79.8011 30.8374C79.4091 30.9552 79.1174 31.2996 78.9258 31.8708H80.2822C80.2822 31.8533 80.2844 31.8272 80.2888 31.7923C80.2933 31.7574 80.2955 31.7291 80.2955 31.7073Z" fill="#FEFEFE"/>
<path d="M91.9393 30.0069C92.0284 30.2859 92.0194 30.5497 91.9125 30.7982C91.3558 30.8244 91.0083 30.99 90.8702 31.2952L88.8191 36.1283L88.0908 38.0184C87.8013 38.777 87.5051 39.2959 87.2022 39.5749C86.9037 39.8583 86.5296 40 86.0797 40C85.7056 40 85.4049 39.8888 85.1777 39.6665C84.9506 39.4441 84.837 39.1672 84.837 38.8359C84.837 38.5132 84.9506 38.2407 85.1777 38.0184C85.4049 37.796 85.6833 37.6848 86.0129 37.6848C86.4049 37.6848 86.7189 37.8309 86.955 38.123L87.7634 36.0367L85.739 31.2952C85.641 31.038 85.2757 30.8723 84.6432 30.7982C84.5274 30.5497 84.5185 30.2859 84.6165 30.0069C86.122 30.0635 87.4962 30.0635 88.7389 30.0069C88.828 30.2859 88.8191 30.5497 88.7122 30.7982C88.4449 30.8156 88.2623 30.8571 88.1643 30.9225C88.0708 30.9835 88.0574 31.0903 88.1242 31.2429L88.9393 33.1984L89.6943 31.2429C89.7478 31.1078 89.7322 31.0031 89.6476 30.929C89.5674 30.8505 89.3825 30.8069 89.093 30.7982C88.9816 30.5497 88.9727 30.2859 89.0663 30.0069C89.4315 30.0243 90.3892 30.0243 91.9393 30.0069ZM91.7321 30.2488C90.7477 30.2924 89.9282 30.2924 89.2734 30.2488C89.2244 30.3666 89.2244 30.469 89.2734 30.5562C89.4427 30.5649 89.5852 30.5846 89.701 30.6151C89.8168 30.6412 89.9126 30.7045 89.9883 30.8047C90.064 30.9007 90.0707 31.0293 90.0083 31.1906L88.6119 34.7876L87.2022 31.3476C87.1042 31.099 87.2044 30.9094 87.5028 30.7786C87.8057 30.6478 88.1487 30.5737 88.5318 30.5562C88.5763 30.469 88.5763 30.3666 88.5318 30.2488C87.2 30.3055 85.9639 30.3055 84.8236 30.2488C84.7791 30.3666 84.7791 30.469 84.8236 30.5562C85.4427 30.6303 85.8303 30.8418 85.9862 31.1906L88.0641 36.0498L87.3291 37.9137C87.1821 38.3149 87.0062 38.6288 86.8013 38.8555C86.5964 39.0822 86.3848 39.1956 86.1666 39.1956C85.8013 39.1956 85.6187 39.0168 85.6187 38.6593C85.6187 38.4282 85.7056 38.2952 85.8793 38.2604C85.9416 38.1601 85.9416 38.0576 85.8793 37.953C85.6566 37.953 85.4717 38.0249 85.3247 38.1688C85.1822 38.317 85.1109 38.522 85.1109 38.7836C85.1109 39.067 85.2089 39.2959 85.4049 39.4703C85.6009 39.6447 85.8503 39.7319 86.1532 39.7319C86.5184 39.7319 86.8213 39.6076 87.0619 39.3591C87.3024 39.1106 87.5607 38.6331 87.8369 37.9268L88.5585 36.0237L90.623 31.1906C90.7967 30.7938 91.1665 30.5824 91.7321 30.5562C91.7767 30.469 91.7767 30.3666 91.7321 30.2488Z" fill="#FEFEFE"/>
<path d="M30.4388 21.8255C30.7763 21.8255 31.0682 21.7719 31.3145 21.6647C31.5699 21.5486 31.7752 21.3924 31.9303 21.1959C32.0945 20.9906 32.2131 20.7539 32.286 20.4861C32.3681 20.2092 32.4092 19.9101 32.4092 19.5887V18.1421C32.4092 17.8207 32.3681 17.526 32.286 17.2581C32.2131 16.9813 32.0945 16.7447 31.9303 16.5482C31.7752 16.3429 31.5699 16.1866 31.3145 16.0794C31.0682 15.9634 30.7763 15.9053 30.4388 15.9053C30.0921 15.9053 29.7957 15.9634 29.5494 16.0794C29.3031 16.1866 29.0978 16.3429 28.9336 16.5482C28.7785 16.7447 28.6599 16.9813 28.5778 17.2581C28.5049 17.526 28.4684 17.8207 28.4684 18.1421V19.5887C28.4684 19.9101 28.5049 20.2092 28.5778 20.4861C28.6599 20.7539 28.7785 20.9906 28.9336 21.1959C29.0978 21.3924 29.3031 21.5486 29.5494 21.6647C29.7957 21.7719 30.0921 21.8255 30.4388 21.8255ZM30.4388 22.4818C29.9553 22.4818 29.5129 22.3969 29.1115 22.2273C28.7101 22.0576 28.368 21.8165 28.0852 21.504C27.8024 21.1825 27.5835 20.803 27.4284 20.3655C27.2733 19.919 27.1958 19.419 27.1958 18.8654C27.1958 18.3207 27.2733 17.8251 27.4284 17.3787C27.5835 16.9322 27.8024 16.5527 28.0852 16.2402C28.368 15.9187 28.7101 15.6732 29.1115 15.5035C29.5129 15.3338 29.9553 15.249 30.4388 15.249C30.9223 15.249 31.3647 15.3338 31.7661 15.5035C32.1674 15.6732 32.5095 15.9187 32.7923 16.2402C33.0751 16.5527 33.2941 16.9322 33.4491 17.3787C33.6042 17.8251 33.6818 18.3207 33.6818 18.8654C33.6818 19.419 33.6042 19.919 33.4491 20.3655C33.2941 20.803 33.0751 21.1825 32.7923 21.504C32.5095 21.8165 32.1674 22.0576 31.7661 22.2273C31.3647 22.3969 30.9223 22.4818 30.4388 22.4818Z" fill="#FEFEFE"/>
<path d="M40.3349 22.4818C39.4591 22.4818 38.7567 22.1737 38.2276 21.5576C37.7077 20.9325 37.4477 20.0351 37.4477 18.8654C37.4477 17.6956 37.7077 16.8027 38.2276 16.1866C38.7567 15.5615 39.4591 15.249 40.3349 15.249C40.8822 15.249 41.3247 15.3651 41.6622 15.5973C42.0088 15.8294 42.2597 16.1107 42.4148 16.4411H42.4695V13.173L41.4432 12.9988V12.53L43.5915 12.1416V21.4504L44.6041 21.6245V22.0799L42.4695 22.4818V21.2763H42.4148C42.2597 21.6067 42.0134 21.8924 41.6759 22.1335C41.3383 22.3657 40.8913 22.4818 40.3349 22.4818ZM40.6633 21.7183C40.8822 21.7183 41.1012 21.687 41.3201 21.6245C41.539 21.562 41.7306 21.4727 41.8948 21.3567C42.0681 21.2406 42.205 21.0977 42.3053 20.9281C42.4148 20.7495 42.4695 20.553 42.4695 20.3387V17.392C42.4695 17.1777 42.4148 16.9858 42.3053 16.8161C42.205 16.6375 42.0681 16.4902 41.8948 16.3741C41.7306 16.258 41.539 16.1687 41.3201 16.1062C41.1012 16.0437 40.8822 16.0125 40.6633 16.0125C40.0339 16.0125 39.5413 16.2223 39.1855 16.642C38.8388 17.0527 38.6655 17.6064 38.6655 18.3028V19.4279C38.6655 20.1244 38.8388 20.6825 39.1855 21.1022C39.5413 21.5129 40.0339 21.7183 40.6633 21.7183Z" fill="#FEFEFE"/>
<path d="M51.2323 22.4818C50.7306 22.4818 50.2791 22.3969 49.8777 22.2273C49.4854 22.0487 49.1525 21.8031 48.8788 21.4906C48.6051 21.1781 48.3953 20.7986 48.2494 20.3521C48.1034 19.9057 48.0304 19.4101 48.0304 18.8654C48.0304 18.3296 48.108 17.843 48.263 17.4054C48.4272 16.959 48.6462 16.575 48.9198 16.2536C49.2026 15.9321 49.5356 15.6866 49.9187 15.5169C50.3019 15.3383 50.7215 15.249 51.1776 15.249C51.6429 15.249 52.0579 15.3294 52.4228 15.4901C52.7877 15.6508 53.0933 15.8785 53.3396 16.1732C53.595 16.4589 53.7911 16.8027 53.928 17.2045C54.0648 17.6064 54.1332 18.0439 54.1332 18.5171V18.8252H49.2756V19.1734C49.2756 19.9324 49.4672 20.5307 49.8503 20.9682C50.2426 21.4058 50.7625 21.6245 51.4102 21.6245C51.9758 21.6245 52.4228 21.5129 52.7512 21.2897C53.0887 21.0575 53.3533 20.7584 53.5448 20.3923L53.9964 20.6736C53.9052 20.9057 53.7775 21.1334 53.6133 21.3567C53.4582 21.571 53.2666 21.7629 53.0386 21.9326C52.8105 22.0933 52.546 22.2228 52.2449 22.321C51.9439 22.4282 51.6064 22.4818 51.2323 22.4818ZM49.2756 18.2091H52.9565V18.0751C52.9565 17.7626 52.92 17.4724 52.847 17.2045C52.7831 16.9367 52.6782 16.7045 52.5323 16.508C52.3863 16.3116 52.1993 16.1598 51.9713 16.0527C51.7523 15.9366 51.4878 15.8785 51.1776 15.8785C50.8675 15.8785 50.5938 15.9321 50.3566 16.0393C50.1194 16.1464 49.9187 16.2982 49.7545 16.4947C49.5995 16.6911 49.4809 16.9233 49.3988 17.1911C49.3167 17.4501 49.2756 17.7358 49.2756 18.0484V18.2091Z" fill="#FEFEFE"/>
</svg>
