<svg width="222" height="100" viewBox="0 0 222 100" fill="none" xmlns="http://www.w3.org/2000/svg">
<g filter="url(#filter0_d_1493_2928)">
<path d="M34.9014 76.4032C30.245 76.4032 26.0119 75.5213 22.2022 73.7576C18.3924 71.9939 15.1471 69.4542 12.4661 66.1385C9.78519 62.8227 7.70393 58.8015 6.22236 54.0748C4.74079 49.3481 4 44.057 4 38.2016C4 32.0639 4.74079 26.6318 6.22236 21.9051C7.70393 17.1784 9.74991 13.1924 12.3603 9.94722C15.0412 6.70203 18.2513 4.23286 21.9905 2.53972C25.7297 0.846572 29.857 0 34.3722 0C38.9581 0 42.7678 0.776025 45.8015 2.32808C48.9058 3.80958 50.9517 5.67909 51.9395 7.93662H52.3628V1.26986H59.9823V22.8575H52.3628V17.3547C52.3628 13.8274 50.8106 11.0054 47.7064 8.88901C44.6021 6.70203 40.5455 5.60855 35.5363 5.60855C31.7971 5.60855 28.5518 6.31402 25.8003 7.72498C23.1193 9.06538 20.897 10.9349 19.1332 13.3335C17.44 15.6616 16.1701 18.413 15.3234 21.5876C14.5474 24.6917 14.1594 27.9722 14.1594 31.429V44.2334C14.1594 48.1135 14.6532 51.6056 15.6409 54.7097C16.6992 57.8138 18.1808 60.4947 20.0856 62.7522C22.0611 64.9392 24.4598 66.6323 27.2819 67.8316C30.1039 69.0309 33.314 69.6306 36.9121 69.6306C41.9212 69.6306 46.119 68.3255 49.5054 65.7152C52.8919 63.1049 55.3612 59.7892 56.9133 55.768L61.0405 57.7786C60.4056 59.8245 59.3826 61.9409 57.9716 64.1279C56.5605 66.3148 54.7615 68.3255 52.5744 70.1597C50.4579 71.9939 47.918 73.5107 44.9549 74.71C41.9917 75.8388 38.6406 76.4032 34.9014 76.4032Z" fill="#FEFEFE"/>
<path d="M68.9809 69.3462C68.9809 66.6981 69.0347 63.6893 69.1424 60.32C69.1639 59.5019 70.9617 58.9851 74.5358 58.7699C74.6004 58.5653 74.6004 58.3124 74.5358 58.0109C71.7153 58.0971 69.5138 58.1401 67.9313 58.1401C66.6072 58.1401 64.734 58.0971 62.3119 58.0109C62.215 58.2047 62.215 58.4577 62.3119 58.7699C64.7771 59.0067 66.0205 59.5234 66.042 60.32C66.1497 62.8497 66.2035 65.8584 66.2035 69.3462V80.8591C66.2035 83.9916 65.9774 86.1822 65.5253 87.4309C65.0731 88.6904 64.1312 89.3201 62.6994 89.3201C61.6659 89.3201 60.8693 89.0403 60.3095 88.4805C59.7605 87.9207 59.486 87.2748 59.486 86.5428C59.486 85.9723 59.6313 85.5202 59.922 85.1865C60.2126 84.8528 60.5571 84.6859 60.9554 84.6859C61.3215 84.6859 61.639 84.8205 61.9082 85.0896C62.1773 85.025 62.3549 84.8366 62.441 84.5245C62.0427 83.9539 61.456 83.6687 60.6809 83.6687C59.9058 83.6687 59.2814 83.9162 58.8078 84.4114C58.3341 84.9066 58.0973 85.5955 58.0973 86.4783C58.0973 87.5117 58.501 88.4105 59.3083 89.1748C60.1157 89.9499 61.2461 90.3374 62.6994 90.3374C63.2915 90.3374 63.8298 90.2728 64.3142 90.1436C64.7986 90.0145 65.24 89.7992 65.6383 89.4978C66.0366 89.2071 66.3865 88.8788 66.6879 88.5128C66.9893 88.1468 67.2531 87.6462 67.4792 87.0111C67.716 86.3868 67.9152 85.7732 68.0766 85.1703C68.2381 84.5675 68.3727 83.7925 68.4803 82.8452C68.5988 81.8979 68.6903 80.999 68.7548 80.1486C68.8194 79.2982 68.8679 78.2325 68.9002 76.9515C68.9325 75.6705 68.954 74.4864 68.9648 73.3991C68.9755 72.3119 68.9809 70.9609 68.9809 69.3462ZM63.1031 90.9994C61.2515 90.9994 59.852 90.5581 58.9047 89.6754C57.9465 88.8034 57.4567 87.7377 57.4352 86.4783C57.4137 85.3695 57.7312 84.5083 58.3879 83.8947C59.0338 83.2811 59.7874 82.9743 60.6486 82.9743C61.4668 82.9743 62.1719 83.2488 62.764 83.7978C63.3561 84.3468 63.6521 85.1058 63.6521 86.0746C63.6521 86.4944 63.5875 86.8443 63.4583 87.1241C63.3292 87.4148 63.1838 87.6408 63.0224 87.8023C62.8716 87.9745 62.7855 88.093 62.764 88.1575C62.8501 88.3621 63.0385 88.5074 63.3292 88.5935C64.2334 88.3998 64.8255 87.7162 65.1054 86.5428C65.3961 85.3695 65.5414 83.4749 65.5414 80.8591V69.3462C65.5414 65.88 65.4876 62.882 65.3799 60.3523C65.3584 59.954 64.1581 59.6364 61.779 59.3996C61.596 58.6891 61.6175 57.9948 61.8436 57.3166C63.7382 57.4243 66.1497 57.4781 69.0778 57.4781C69.5192 57.4781 70.4019 57.4673 71.7261 57.4458C73.0502 57.4243 74.2074 57.4135 75.1978 57.4135C75.4024 58.0271 75.4132 58.6891 75.2301 59.3996C72.851 59.6364 71.6507 59.954 71.6292 60.3523C71.5 63.0434 71.4354 66.4397 71.4354 70.5411C71.4354 72.285 71.4139 73.8297 71.3708 75.1753C71.3277 76.5101 71.2309 77.9203 71.0801 79.4058C70.9402 80.8806 70.7464 82.1562 70.4988 83.2327C70.262 84.3199 69.9336 85.3749 69.5138 86.3975C69.094 87.4202 68.5934 88.2491 68.012 88.8842C67.4307 89.5301 66.7256 90.0414 65.8967 90.4181C65.0678 90.8057 64.1366 90.9994 63.1031 90.9994Z" fill="black"/>
<path d="M90.1139 68.119C91.2228 68.119 92.1001 68.6519 92.746 69.7176C93.4027 70.7725 93.7311 72.4141 93.7311 74.6424C93.7311 76.8707 93.4027 78.5124 92.746 79.5673C92.1001 80.6222 91.2228 81.1497 90.1139 81.1497C89.5003 81.1497 88.9405 81.0205 88.4346 80.7622C87.9394 80.5038 87.5141 80.1055 87.1589 79.5673C86.8144 79.0291 86.5453 78.3563 86.3515 77.5489C86.1577 76.7308 86.0608 75.762 86.0608 74.6424C86.0608 73.5337 86.1577 72.5702 86.3515 71.7521C86.5453 70.9232 86.8144 70.245 87.1589 69.7176C87.5141 69.1793 87.9394 68.781 88.4346 68.5227C88.9405 68.2536 89.5003 68.119 90.1139 68.119ZM90.1139 82.2154C91.1151 82.2154 92.014 82.027 92.8106 81.6503C93.6073 81.2735 94.2855 80.7514 94.8453 80.084C95.4158 79.4058 95.8518 78.6039 96.1532 77.6781C96.4547 76.7523 96.6054 75.7404 96.6054 74.6424C96.6054 73.5444 96.4547 72.5326 96.1532 71.6068C95.8518 70.681 95.4158 69.8844 94.8453 69.217C94.2855 68.5388 93.6073 68.0114 92.8106 67.6346C92.014 67.2578 91.1151 67.0695 90.1139 67.0695C89.0482 67.0695 88.0847 67.2578 87.2235 67.6346C86.3623 68.0114 85.6302 68.5335 85.0274 69.2009C84.4353 69.8683 83.9778 70.6703 83.6548 71.6068C83.3318 72.5326 83.1704 73.5444 83.1704 74.6424C83.1704 75.7512 83.3318 76.7685 83.6548 77.6942C83.9778 78.62 84.4353 79.422 85.0274 80.1002C85.6302 80.7676 86.3623 81.2897 87.2235 81.6664C88.0847 82.0324 89.0482 82.2154 90.1139 82.2154ZM90.6791 66.4074C91.9817 66.4074 93.139 66.6066 94.1509 67.0049C95.1736 67.4032 96.0348 67.9683 96.7346 68.7003C97.4343 69.4215 97.9672 70.2881 98.3332 71.3C98.6992 72.3119 98.8822 73.426 98.8822 74.6424C98.8822 75.8481 98.6992 76.9569 98.3332 77.9687C97.9672 78.9806 97.4343 79.8526 96.7346 80.5846C96.0456 81.3058 95.1898 81.8656 94.1671 82.2639C93.1444 82.6729 91.9817 82.8775 90.6791 82.8775C89.3873 82.8775 88.23 82.6729 87.2073 82.2639C86.1954 81.8656 85.3396 81.3058 84.6398 80.5846C83.9508 79.8526 83.4233 78.986 83.0573 77.9849C82.6913 76.973 82.5083 75.8589 82.5083 74.6424C82.5083 73.426 82.6913 72.3119 83.0573 71.3C83.4233 70.2881 83.9562 69.4215 84.656 68.7003C85.3557 67.9683 86.2115 67.4032 87.2235 67.0049C88.2354 66.6066 89.3873 66.4074 90.6791 66.4074ZM88.3377 74.6424C88.3377 78.1194 89.1182 80.0463 90.6791 80.4231C92.2724 80.0463 93.069 78.1194 93.069 74.6424C93.069 71.1977 92.2724 69.2655 90.6791 68.8456C89.1182 69.2655 88.3377 71.1977 88.3377 74.6424Z" fill="black"/>
<path d="M117.755 77.8396C117.841 75.1484 117.841 72.4518 117.755 69.7499C117.755 69.3731 116.942 69.0502 115.316 68.781C115.069 68.1244 115.069 67.4731 115.316 66.8272H122.292C122.594 66.9457 122.809 67.0748 122.938 67.2148C123.078 67.3547 123.202 67.5592 123.309 67.8284C123.309 68.0221 123.283 68.3289 123.229 68.7487C123.175 69.1686 123.148 69.5023 123.148 69.7499C123.04 73.2915 123.04 76.3756 123.148 79.0022C123.923 79.2497 124.741 79.3951 125.602 79.4381C125.839 80.0732 125.839 80.7568 125.602 81.4888C124.192 81.5749 122.448 82.0593 120.371 82.942C119.197 82.8559 118.325 82.5007 117.755 81.8763V81.4565C116.28 82.4038 114.53 82.8775 112.507 82.8775C111.042 82.8775 110.004 82.4792 109.39 81.6826C108.776 80.886 108.459 79.6373 108.437 77.9364C108.459 75.2345 108.459 72.5056 108.437 69.7499C108.437 69.3731 107.619 69.0502 105.983 68.781C105.746 68.1244 105.746 67.4731 105.983 66.8272H112.991C113.303 66.9457 113.524 67.0748 113.653 67.2148C113.793 67.3547 113.917 67.5592 114.024 67.8284C114.024 68.0221 113.997 68.3289 113.944 68.7487C113.89 69.1686 113.863 69.5023 113.863 69.7499C113.788 72.2581 113.788 74.8147 113.863 77.4197C113.906 78.6469 114.127 79.3628 114.525 79.5673C115.311 79.3628 116.387 78.7869 117.755 77.8396ZM118.417 69.7499C118.481 72.5487 118.481 75.3583 118.417 78.1787C116.414 79.6104 114.869 80.3262 113.782 80.3262C112.307 80.3262 111.57 79.3574 111.57 77.4197C111.505 74.8147 111.505 72.2581 111.57 69.7499C111.57 69.4592 111.597 69.1094 111.651 68.7003C111.715 68.2913 111.748 68.0329 111.748 67.9252C111.629 67.6777 111.473 67.5108 111.279 67.4247C109.686 67.5323 108.098 67.5323 106.516 67.4247C106.43 67.6723 106.43 67.9253 106.516 68.1836C108.217 68.4527 109.078 68.9748 109.099 69.7499C109.121 72.4841 109.121 75.213 109.099 77.9364C109.078 79.4004 109.331 80.4823 109.858 81.182C110.386 81.871 111.269 82.2154 112.507 82.2154C114.132 82.2154 116.102 81.2089 118.417 79.1959V81.5534C118.503 81.7256 118.691 81.8656 118.982 81.9732C120.521 81.4027 122.518 81.0205 124.973 80.8268C125.059 80.5577 125.059 80.3047 124.973 80.0679C123.121 79.9925 121.754 79.7718 120.871 79.4058C120.785 75.5628 120.785 72.3442 120.871 69.7499C120.871 69.4592 120.898 69.1094 120.952 68.7003C121.006 68.2913 121.033 68.0329 121.033 67.9252C120.925 67.6777 120.769 67.5108 120.564 67.4247C119.003 67.5108 117.426 67.5108 115.833 67.4247C115.747 67.6723 115.747 67.9253 115.833 68.1836C117.534 68.4527 118.395 68.9748 118.417 69.7499Z" fill="black"/>
<path d="M138.758 72.6563C139.028 71.666 139.582 70.7025 140.422 69.766C141.261 68.8295 142.117 68.3612 142.989 68.3612C144.012 68.3612 144.523 68.6895 144.523 69.3462C144.523 69.9383 144.243 70.315 143.684 70.4765C143.533 70.6918 143.533 70.9448 143.684 71.2354C144.265 71.2354 144.738 71.0578 145.105 70.7026C145.481 70.3473 145.67 69.8521 145.67 69.217C145.67 68.5496 145.465 68.0275 145.056 67.6507C144.658 67.2632 144.136 67.0695 143.49 67.0695C142.65 67.0695 141.805 67.4085 140.955 68.0867C140.115 68.7541 139.383 69.5023 138.758 70.3312V67.5539C138.672 67.3816 138.489 67.2417 138.209 67.134C136.767 67.8122 135.098 68.2536 133.204 68.4581C133.139 68.7165 133.139 68.9694 133.204 69.217C134.657 69.2816 135.696 69.5023 136.32 69.879C136.406 73.8943 136.395 77.1129 136.288 79.535C136.266 80.3316 135.351 80.8483 133.543 81.0851C133.381 81.3758 133.381 81.6287 133.543 81.844C136.363 81.7149 139.437 81.7149 142.763 81.844C142.914 81.6287 142.914 81.3758 142.763 81.0851C140.212 80.8483 138.925 80.3316 138.904 79.535C138.807 77.3498 138.758 75.0569 138.758 72.6563ZM141.181 79.5027C141.202 79.9225 141.929 80.2509 143.361 80.4877C143.716 81.1982 143.694 81.8817 143.296 82.5384C138.731 82.3877 135.281 82.3554 132.945 82.4415C132.547 81.8064 132.525 81.1551 132.881 80.4877C134.689 80.2509 135.604 79.9225 135.626 79.5027C135.755 76.4348 135.766 73.3561 135.658 70.2666C134.948 70.0513 133.968 69.9113 132.719 69.8468C132.472 69.2009 132.472 68.5173 132.719 67.7961C134.517 67.6884 136.422 67.204 138.435 66.3428C139.598 66.472 140.47 66.8219 141.051 67.3924C141.956 66.7357 142.768 66.4074 143.49 66.4074C144.329 66.4074 145.013 66.655 145.541 67.1502C146.068 67.6454 146.332 68.3343 146.332 69.217C146.332 70.0567 146.084 70.7133 145.589 71.187C145.094 71.6606 144.459 71.8974 143.684 71.8974C142.962 71.8974 142.359 71.6552 141.875 71.1708C141.434 71.7629 141.159 72.3011 141.051 72.7855C141.051 75.1215 141.094 77.3605 141.181 79.5027Z" fill="black"/>
<path d="M164.494 81.0044C164.364 81.252 164.364 81.5157 164.494 81.7956C167.293 81.731 170.097 81.731 172.907 81.7956C173.057 81.5372 173.057 81.2735 172.907 81.0044C170.28 80.8752 168.956 80.3585 168.934 79.4543L168.773 71.3323C168.719 69.8575 168.477 68.781 168.046 68.1029C167.626 67.4139 166.883 67.0695 165.818 67.0695C164.031 67.0695 161.905 68.302 159.439 70.7671V67.5539C159.353 67.3816 159.165 67.2417 158.874 67.134C157.378 67.8337 155.822 68.2751 154.207 68.4581C154.143 68.7165 154.143 68.9694 154.207 69.217C155.445 69.2816 156.36 69.5023 156.953 69.879C157.071 73.0977 157.071 76.2894 156.953 79.4543C156.931 80.2509 156.005 80.7676 154.175 81.0044C154.046 81.252 154.046 81.5157 154.175 81.7956C156.974 81.688 159.789 81.688 162.62 81.7956C162.75 81.5157 162.75 81.252 162.62 81.0044C160.607 80.7891 159.59 80.2724 159.568 79.4543C159.482 77.2152 159.439 74.664 159.439 71.8006C161.603 69.8952 163.299 68.9425 164.526 68.9425C165.699 68.9425 166.286 69.9167 166.286 71.8651L166.254 79.4543C166.254 79.9817 166.092 80.3531 165.769 80.5684C165.446 80.773 165.021 80.9183 164.494 81.0044ZM163.977 82.3607C163.708 81.7256 163.708 81.0744 163.977 80.4069C164.321 80.4069 164.677 80.3154 165.043 80.1324C165.409 79.9387 165.592 79.7126 165.592 79.4543L165.624 71.8651C165.624 70.6918 165.392 69.9759 164.93 69.7176C164.133 69.9113 163.062 70.4926 161.716 71.4615C161.716 74.4218 161.759 77.0753 161.845 79.422C161.899 79.9925 162.33 80.3208 163.137 80.4069C163.406 81.0744 163.406 81.7256 163.137 82.3607C159.983 82.2531 156.813 82.2531 153.626 82.3607C153.357 81.7256 153.357 81.0744 153.626 80.4069C155.381 80.1701 156.269 79.8418 156.29 79.422C156.409 76.3863 156.409 73.3345 156.29 70.2666C155.569 70.0513 154.681 69.9113 153.626 69.8468C153.378 69.2009 153.378 68.5173 153.626 67.7961C155.252 67.71 157.082 67.2255 159.116 66.3428C160.279 66.429 161.146 66.7788 161.716 67.3924V67.9252C163.245 66.9134 165 66.4074 166.98 66.4074C168.434 66.4074 169.467 66.8057 170.081 67.6023C170.705 68.3881 171.028 69.6315 171.05 71.3323C171.093 75.6059 171.146 78.3132 171.211 79.4543C171.233 79.8956 171.992 80.2132 173.488 80.4069C173.736 81.1174 173.714 81.7687 173.423 82.3607C170.269 82.2962 167.12 82.2962 163.977 82.3607Z" fill="black"/>
<path d="M187.92 68.119C188.781 68.119 189.405 68.3989 189.793 68.9587C190.18 69.5077 190.374 70.1966 190.374 71.0255C190.374 71.3377 190.32 71.6929 190.213 72.0912H183.915C184.249 70.7456 184.787 69.7499 185.53 69.104C186.283 68.4473 187.08 68.119 187.92 68.119ZM183.753 73.1892H192.554C192.726 72.651 192.812 72.0966 192.812 71.5261C192.812 70.2666 192.452 69.2116 191.73 68.3612C191.02 67.5 189.884 67.0695 188.323 67.0695C186.289 67.0695 184.577 67.8068 183.188 69.2816C181.8 70.7564 181.105 72.6294 181.105 74.9008C181.105 77.3229 181.767 79.1475 183.091 80.3747C184.416 81.6018 185.971 82.2154 187.758 82.2154C189.082 82.2154 190.309 81.8602 191.44 81.1497C192.581 80.4285 193.415 79.3466 193.943 77.9042C193.792 77.7319 193.582 77.6135 193.313 77.5489C193.27 77.6135 193.141 77.7911 192.925 78.0818C192.721 78.3617 192.57 78.5662 192.473 78.6954C192.376 78.8138 192.199 78.9914 191.94 79.2282C191.693 79.4543 191.451 79.6211 191.214 79.7288C190.988 79.8364 190.697 79.9441 190.342 80.0517C189.987 80.1486 189.599 80.197 189.179 80.197C187.521 80.197 186.203 79.7072 185.223 78.7277C184.243 77.7373 183.732 76.4079 183.689 74.7393C183.689 74.3626 183.71 73.8458 183.753 73.1892ZM193.055 76.79C193.733 76.9407 194.282 77.2798 194.702 77.8073C194.088 79.4866 193.141 80.7514 191.86 81.6018C190.579 82.4522 189.211 82.8775 187.758 82.8775C185.777 82.8775 184.06 82.21 182.607 80.8752C181.164 79.5404 180.443 77.5489 180.443 74.9008C180.443 72.5003 181.181 70.4873 182.655 68.8618C184.141 67.2255 186.24 66.4074 188.953 66.4074C193.055 66.4074 195.105 68.1136 195.105 71.5261C195.105 72.1935 194.949 72.9685 194.637 73.8512H185.966V74.9008C186.02 76.2033 186.375 77.2637 187.031 78.0818C187.688 78.8891 188.592 79.3628 189.744 79.5027C190.423 79.4381 190.982 79.2067 191.424 78.8084C191.865 78.4101 192.409 77.7373 193.055 76.79ZM189.712 71.0255C189.712 69.8414 189.314 69.1255 188.517 68.8779C187.57 69.1686 186.865 70.019 186.402 71.4292H189.68C189.68 71.3861 189.685 71.3215 189.696 71.2354C189.707 71.1493 189.712 71.0793 189.712 71.0255Z" fill="black"/>
<path d="M217.853 66.8272C218.069 67.5162 218.047 68.1675 217.789 68.781C216.443 68.8456 215.603 69.2547 215.27 70.0082L210.312 81.9409L208.552 86.6074C207.852 88.4805 207.136 89.7615 206.404 90.4504C205.683 91.1501 204.779 91.5 203.692 91.5C202.787 91.5 202.061 91.2255 201.512 90.6765C200.963 90.1275 200.688 89.4439 200.688 88.6258C200.688 87.8292 200.963 87.1564 201.512 86.6074C202.061 86.0584 202.733 85.7839 203.53 85.7839C204.477 85.7839 205.236 86.1445 205.807 86.8658L207.761 81.7149L202.868 70.0082C202.631 69.3731 201.748 68.964 200.22 68.781C199.94 68.1675 199.918 67.5162 200.155 66.8272C203.794 66.9672 207.115 66.9672 210.118 66.8272C210.334 67.5162 210.312 68.1675 210.054 68.781C209.408 68.8241 208.966 68.9264 208.73 69.0878C208.504 69.2385 208.471 69.5023 208.633 69.879L210.603 74.707L212.428 69.879C212.557 69.5453 212.519 69.287 212.314 69.104C212.121 68.9102 211.674 68.8026 210.974 68.781C210.705 68.1675 210.684 67.5162 210.91 66.8272C211.792 66.8703 214.107 66.8703 217.853 66.8272ZM217.353 67.4247C214.973 67.5323 212.993 67.5323 211.41 67.4247C211.292 67.7153 211.292 67.9683 211.41 68.1836C211.819 68.2051 212.164 68.2536 212.444 68.3289C212.724 68.3935 212.955 68.5496 213.138 68.7972C213.321 69.034 213.337 69.3516 213.186 69.7499L209.812 78.6308L206.404 70.1374C206.168 69.5238 206.41 69.0555 207.131 68.7326C207.863 68.4097 208.692 68.2267 209.618 68.1836C209.725 67.9683 209.725 67.7153 209.618 67.4247C206.399 67.5646 203.412 67.5646 200.656 67.4247C200.548 67.7153 200.548 67.9683 200.656 68.1836C202.152 68.3666 203.089 68.8887 203.465 69.7499L208.487 81.7472L206.711 86.3491C206.356 87.3394 205.931 88.1145 205.435 88.6743C204.94 89.234 204.429 89.5139 203.901 89.5139C203.019 89.5139 202.577 89.0726 202.577 88.1898C202.577 87.6193 202.787 87.291 203.207 87.2049C203.358 86.9573 203.358 86.7043 203.207 86.446C202.669 86.446 202.222 86.6236 201.867 86.9788C201.522 87.3448 201.35 87.8508 201.35 88.4966C201.35 89.1963 201.587 89.7615 202.061 90.1921C202.534 90.6227 203.137 90.838 203.869 90.838C204.752 90.838 205.484 90.5312 206.065 89.9176C206.647 89.304 207.271 88.1253 207.938 86.3814L209.682 81.6826L214.672 69.7499C215.092 68.7703 215.985 68.2482 217.353 68.1836C217.46 67.9683 217.46 67.7153 217.353 67.4247Z" fill="black"/>
<path d="M64.255 49.1078C65.0708 49.1078 65.7763 48.9755 66.3716 48.711C66.9889 48.4244 67.4849 48.0386 67.8597 47.5536C68.2566 47.0465 68.5432 46.4623 68.7196 45.8009C68.918 45.1175 69.0172 44.3789 69.0172 43.5853V40.0138C69.0172 39.2201 68.918 38.4926 68.7196 37.8312C68.5432 37.1478 68.2566 36.5636 67.8597 36.0785C67.4849 35.5715 66.9889 35.1857 66.3716 34.9211C65.7763 34.6345 65.0708 34.4912 64.255 34.4912C63.4172 34.4912 62.7007 34.6345 62.1054 34.9211C61.5101 35.1857 61.0141 35.5715 60.6172 36.0785C60.2424 36.5636 59.9558 37.1478 59.7574 37.8312C59.581 38.4926 59.4928 39.2201 59.4928 40.0138V43.5853C59.4928 44.3789 59.581 45.1175 59.7574 45.8009C59.9558 46.4623 60.2424 47.0465 60.6172 47.5536C61.0141 48.0386 61.5101 48.4244 62.1054 48.711C62.7007 48.9755 63.4172 49.1078 64.255 49.1078ZM64.255 50.7282C63.0865 50.7282 62.0172 50.5188 61.0472 50.0999C60.0771 49.681 59.2503 49.0858 58.5668 48.3142C57.8834 47.5205 57.3542 46.5835 56.9794 45.5033C56.6046 44.401 56.4172 43.1664 56.4172 41.7995C56.4172 40.4547 56.6046 39.2311 56.9794 38.1288C57.3542 37.0265 57.8834 36.0896 58.5668 35.3179C59.2503 34.5243 60.0771 33.918 61.0472 33.4991C62.0172 33.0803 63.0865 32.8708 64.255 32.8708C65.4235 32.8708 66.4928 33.0803 67.4629 33.4991C68.433 33.918 69.2597 34.5243 69.9432 35.3179C70.6267 36.0896 71.1558 37.0265 71.5306 38.1288C71.9054 39.2311 72.0928 40.4547 72.0928 41.7995C72.0928 43.1664 71.9054 44.401 71.5306 45.5033C71.1558 46.5835 70.6267 47.5205 69.9432 48.3142C69.2597 49.0858 68.433 49.681 67.4629 50.0999C66.4928 50.5188 65.4235 50.7282 64.255 50.7282Z" fill="black"/>
<path d="M88.1725 50.7282C86.0559 50.7282 84.3583 49.9676 83.0796 48.4464C81.8229 46.9032 81.1945 44.6876 81.1945 41.7995C81.1945 38.9115 81.8229 36.7069 83.0796 35.1857C84.3583 33.6424 86.0559 32.8708 88.1725 32.8708C89.4953 32.8708 90.5646 33.1574 91.3803 33.7306C92.2181 34.3038 92.8244 34.9983 93.1992 35.814H93.3315V27.7451L90.8512 27.3152V26.1578L96.0433 25.1988V48.1819L98.4906 48.6118V49.7361L93.3315 50.7282V47.752H93.1992C92.8244 48.5677 92.2291 49.2732 91.4134 49.8684C90.5976 50.4416 89.5173 50.7282 88.1725 50.7282ZM88.9662 48.8433C89.4953 48.8433 90.0244 48.7661 90.5536 48.6118C91.0827 48.4575 91.5457 48.237 91.9425 47.9504C92.3614 47.6638 92.6921 47.3111 92.9347 46.8922C93.1992 46.4513 93.3315 45.9662 93.3315 45.4371V38.1619C93.3315 37.6328 93.1992 37.1588 92.9347 36.7399C92.6921 36.299 92.3614 35.9352 91.9425 35.6486C91.5457 35.362 91.0827 35.1416 90.5536 34.9873C90.0244 34.8329 89.4953 34.7558 88.9662 34.7558C87.4449 34.7558 86.2543 35.2739 85.3945 36.31C84.5567 37.3241 84.1378 38.691 84.1378 40.4106V43.1884C84.1378 44.908 84.5567 46.2859 85.3945 47.3221C86.2543 48.3362 87.4449 48.8433 88.9662 48.8433Z" fill="black"/>
<path d="M114.51 50.7282C113.297 50.7282 112.206 50.5188 111.236 50.0999C110.288 49.659 109.483 49.0527 108.822 48.2811C108.16 47.5095 107.653 46.5725 107.301 45.4702C106.948 44.3679 106.771 43.1443 106.771 41.7995C106.771 40.4767 106.959 39.2752 107.334 38.195C107.73 37.0927 108.26 36.1447 108.921 35.351C109.604 34.5574 110.409 33.9511 111.335 33.5322C112.261 33.0913 113.275 32.8708 114.378 32.8708C115.502 32.8708 116.505 33.0692 117.387 33.4661C118.269 33.8629 119.008 34.4251 119.603 35.1526C120.22 35.8581 120.694 36.7069 121.025 37.6989C121.356 38.691 121.521 39.7713 121.521 40.9397V41.7003H109.781V42.5601C109.781 44.434 110.244 45.9111 111.17 46.9914C112.118 48.0717 113.375 48.6118 114.94 48.6118C116.307 48.6118 117.387 48.3362 118.181 47.7851C118.997 47.2119 119.636 46.4733 120.099 45.5694L121.19 46.2639C120.97 46.8371 120.661 47.3992 120.264 47.9504C119.89 48.4795 119.427 48.9535 118.875 49.3724C118.324 49.7692 117.685 50.0889 116.957 50.3314C116.23 50.5959 115.414 50.7282 114.51 50.7282ZM109.781 40.1791H118.677V39.8484C118.677 39.0768 118.589 38.3603 118.412 37.6989C118.258 37.0375 118.004 36.4643 117.652 35.9793C117.299 35.4943 116.847 35.1195 116.296 34.855C115.767 34.5684 115.127 34.4251 114.378 34.4251C113.628 34.4251 112.967 34.5574 112.393 34.8219C111.82 35.0865 111.335 35.4612 110.938 35.9463C110.564 36.4313 110.277 37.0045 110.079 37.6659C109.88 38.3052 109.781 39.0107 109.781 39.7823V40.1791Z" fill="black"/>
</g>
<defs>
<filter id="filter0_d_1493_2928" x="0" y="0" width="222" height="99.5" filterUnits="userSpaceOnUse" color-interpolation-filters="sRGB">
<feFlood flood-opacity="0" result="BackgroundImageFix"/>
<feColorMatrix in="SourceAlpha" type="matrix" values="0 0 0 0 0 0 0 0 0 0 0 0 0 0 0 0 0 0 127 0" result="hardAlpha"/>
<feOffset dy="4"/>
<feGaussianBlur stdDeviation="2"/>
<feComposite in2="hardAlpha" operator="out"/>
<feColorMatrix type="matrix" values="0 0 0 0 0 0 0 0 0 0 0 0 0 0 0 0 0 0 0.16 0"/>
<feBlend mode="normal" in2="BackgroundImageFix" result="effect1_dropShadow_1493_2928"/>
<feBlend mode="normal" in="SourceGraphic" in2="effect1_dropShadow_1493_2928" result="shape"/>
</filter>
</defs>
</svg>
