<svg width="722" height="115" viewBox="0 0 722 115" fill="none" xmlns="http://www.w3.org/2000/svg">
<g filter="url(#filter0_d_988_2402)">
<path d="M16 40.24H18.92V16.64H16V14.48H29.84C32.5867 14.48 34.6533 15.0933 36.04 16.32C37.4267 17.5467 38.12 19.1333 38.12 21.08C38.12 22.0667 37.96 22.9467 37.64 23.72C37.32 24.4667 36.8933 25.1067 36.36 25.64C35.8533 26.1733 35.2667 26.6133 34.6 26.96C33.9333 27.3067 33.24 27.5467 32.52 27.68V27.88C33.2667 27.96 34.0267 28.1467 34.8 28.44C35.6 28.7333 36.32 29.16 36.96 29.72C37.6267 30.28 38.16 30.9733 38.56 31.8C38.9867 32.6 39.2 33.5467 39.2 34.64C39.2 37.0667 38.4667 38.9733 37 40.36C35.5333 41.72 33.4933 42.4 30.88 42.4H16V40.24ZM23.68 40.08H29.52C31.04 40.08 32.2133 39.6667 33.04 38.84C33.8667 37.9867 34.28 36.88 34.28 35.52V33.72C34.28 32.36 33.8667 31.2667 33.04 30.44C32.2133 29.5867 31.04 29.16 29.52 29.16H23.68V40.08ZM23.68 26.8H28.84C30.28 26.8 31.36 26.4267 32.08 25.68C32.8267 24.9333 33.2 23.9333 33.2 22.68V20.92C33.2 19.6667 32.8267 18.6667 32.08 17.92C31.36 17.1733 30.28 16.8 28.84 16.8H23.68V26.8Z" fill="white"/>
<path d="M43.1828 40.24H45.9028V24.8L43.1828 24.28V22.52L50.2628 21.12V24.84H50.4628C50.6495 24.36 50.8761 23.9067 51.1428 23.48C51.4361 23.0267 51.7828 22.6267 52.1828 22.28C52.6095 21.9333 53.0895 21.6533 53.6228 21.44C54.1828 21.2267 54.8095 21.12 55.5028 21.12C56.7295 21.12 57.7028 21.4267 58.4228 22.04C59.1695 22.6533 59.5428 23.5333 59.5428 24.68C59.5428 25.5867 59.3028 26.3067 58.8228 26.84C58.3695 27.3467 57.7428 27.6 56.9428 27.6C56.1161 27.6 55.4628 27.3867 54.9828 26.96C54.5295 26.5067 54.3028 25.9467 54.3028 25.28C54.3028 24.8267 54.3961 24.4533 54.5828 24.16C54.7695 23.84 54.9961 23.6533 55.2628 23.6V23.48C55.1828 23.4533 55.0895 23.44 54.9828 23.44C54.8761 23.4133 54.7161 23.4 54.5028 23.4C53.9961 23.4 53.4895 23.5333 52.9828 23.8C52.5028 24.0667 52.0628 24.4133 51.6628 24.84C51.2895 25.24 50.9828 25.7067 50.7428 26.24C50.5028 26.7467 50.3828 27.2533 50.3828 27.76V40.24H53.9028V42.4H43.1828V40.24Z" fill="white"/>
<path d="M66.6975 17.72C65.8442 17.72 65.1775 17.48 64.6975 17C64.2175 16.4933 63.9775 15.8533 63.9775 15.08V14.84C63.9775 14.0667 64.2175 13.44 64.6975 12.96C65.1775 12.4533 65.8442 12.2 66.6975 12.2C67.5508 12.2 68.2175 12.4533 68.6975 12.96C69.1775 13.44 69.4175 14.0667 69.4175 14.84V15.08C69.4175 15.8533 69.1775 16.4933 68.6975 17C68.2175 17.48 67.5508 17.72 66.6975 17.72ZM61.7375 40.24H64.4575V24.8L61.7375 24.28V22.52L68.9375 21.12V40.24H71.6575V42.4H61.7375V40.24Z" fill="white"/>
<path d="M74.6672 40.24H77.3872V24.8L74.6672 24.28V22.52L81.7472 21.12V24.84H81.9472C82.1072 24.3867 82.3472 23.9333 82.6672 23.48C83.0139 23.0267 83.4272 22.6267 83.9072 22.28C84.4139 21.9333 84.9872 21.6533 85.6272 21.44C86.2939 21.2267 87.0405 21.12 87.8672 21.12C90.4005 21.12 92.2005 21.7733 93.2672 23.08C94.3339 24.36 94.8672 26.2933 94.8672 28.88V40.24H97.5872V42.4H87.7472V40.24H90.3872V29.12C90.3872 27.3867 90.0539 26.12 89.3872 25.32C88.7205 24.52 87.6672 24.12 86.2272 24.12C85.6939 24.12 85.1605 24.2 84.6272 24.36C84.1205 24.4933 83.6539 24.72 83.2272 25.04C82.8272 25.3333 82.4939 25.7067 82.2272 26.16C81.9872 26.6133 81.8672 27.16 81.8672 27.8V40.24H84.5072V42.4H74.6672V40.24Z" fill="white"/>
<path d="M109.605 50.88C107.845 50.88 106.365 50.76 105.165 50.52C103.965 50.3067 103.005 49.9867 102.285 49.56C101.565 49.16 101.045 48.6533 100.725 48.04C100.405 47.4533 100.245 46.8 100.245 46.08C100.245 45.5467 100.365 45.0533 100.605 44.6C100.845 44.1733 101.165 43.7867 101.565 43.44C101.965 43.12 102.431 42.84 102.965 42.6C103.498 42.36 104.045 42.1733 104.605 42.04V41.88C103.725 41.64 103.045 41.2133 102.565 40.6C102.085 39.9867 101.845 39.2133 101.845 38.28C101.845 37.1333 102.205 36.24 102.925 35.6C103.671 34.96 104.551 34.5067 105.565 34.24V34.08C104.285 33.5467 103.271 32.7733 102.525 31.76C101.778 30.72 101.405 29.4533 101.405 27.96C101.405 26.8933 101.605 25.9333 102.005 25.08C102.431 24.2267 103.005 23.5067 103.725 22.92C104.471 22.3333 105.351 21.8933 106.365 21.6C107.378 21.28 108.498 21.12 109.725 21.12C110.925 21.12 111.938 21.24 112.765 21.48C113.591 21.72 114.351 22.0667 115.045 22.52C115.098 21 115.431 19.9333 116.045 19.32C116.658 18.68 117.445 18.36 118.405 18.36C119.071 18.36 119.618 18.56 120.045 18.96C120.498 19.3333 120.725 19.8667 120.725 20.56C120.725 21.2 120.511 21.7333 120.085 22.16C119.685 22.56 119.125 22.76 118.405 22.76C117.605 22.76 116.951 22.4667 116.445 21.88H116.285V23.52C116.765 24 117.191 24.6 117.565 25.32C117.938 26.0133 118.125 26.8933 118.125 27.96C118.125 29.0267 117.911 29.9867 117.485 30.84C117.085 31.6933 116.511 32.4133 115.765 33C115.018 33.5867 114.125 34.04 113.085 34.36C112.071 34.68 110.951 34.84 109.725 34.84C109.271 34.84 108.831 34.8133 108.405 34.76C108.005 34.7067 107.605 34.64 107.205 34.56C106.645 34.7467 106.165 35.0267 105.765 35.4C105.365 35.7733 105.165 36.2267 105.165 36.76C105.165 37.3733 105.391 37.8133 105.845 38.08C106.325 38.3467 107.111 38.48 108.205 38.48H112.885C115.471 38.48 117.351 38.9867 118.525 40C119.698 41.0133 120.285 42.4 120.285 44.16C120.285 46.24 119.391 47.88 117.605 49.08C115.845 50.28 113.178 50.88 109.605 50.88ZM109.765 32.68C111.045 32.68 112.005 32.3333 112.645 31.64C113.285 30.9467 113.605 29.9467 113.605 28.64V27.32C113.605 26.0133 113.285 25.0133 112.645 24.32C112.005 23.6267 111.045 23.28 109.765 23.28C108.485 23.28 107.525 23.6267 106.885 24.32C106.245 25.0133 105.925 26.0133 105.925 27.32V28.64C105.925 29.9467 106.245 30.9467 106.885 31.64C107.525 32.3333 108.485 32.68 109.765 32.68ZM104.005 45.72C104.005 46.7067 104.418 47.44 105.245 47.92C106.071 48.4 107.245 48.64 108.765 48.64H110.925C112.738 48.64 114.125 48.3467 115.085 47.76C116.071 47.2 116.565 46.4 116.565 45.36C116.565 44.4 116.231 43.7067 115.565 43.28C114.925 42.8533 113.871 42.64 112.405 42.64H105.925C104.645 43.3067 104.005 44.3333 104.005 45.72Z" fill="white"/>
<path d="M127.948 17.72C127.094 17.72 126.428 17.48 125.948 17C125.467 16.4933 125.228 15.8533 125.228 15.08V14.84C125.228 14.0667 125.467 13.44 125.948 12.96C126.428 12.4533 127.094 12.2 127.948 12.2C128.801 12.2 129.467 12.4533 129.948 12.96C130.428 13.44 130.668 14.0667 130.668 14.84V15.08C130.668 15.8533 130.428 16.4933 129.948 17C129.467 17.48 128.801 17.72 127.948 17.72ZM122.988 40.24H125.707V24.8L122.988 24.28V22.52L130.188 21.12V40.24H132.908V42.4H122.988V40.24Z" fill="white"/>
<path d="M135.917 40.24H138.637V24.8L135.917 24.28V22.52L142.997 21.12V24.84H143.197C143.357 24.3867 143.597 23.9333 143.917 23.48C144.264 23.0267 144.677 22.6267 145.157 22.28C145.664 21.9333 146.237 21.6533 146.877 21.44C147.544 21.2267 148.291 21.12 149.117 21.12C151.651 21.12 153.451 21.7733 154.517 23.08C155.584 24.36 156.117 26.2933 156.117 28.88V40.24H158.837V42.4H148.997V40.24H151.637V29.12C151.637 27.3867 151.304 26.12 150.637 25.32C149.971 24.52 148.917 24.12 147.477 24.12C146.944 24.12 146.411 24.2 145.877 24.36C145.371 24.4933 144.904 24.72 144.477 25.04C144.077 25.3333 143.744 25.7067 143.477 26.16C143.237 26.6133 143.117 27.16 143.117 27.8V40.24H145.757V42.4H135.917V40.24Z" fill="white"/>
<path d="M170.855 50.88C169.095 50.88 167.615 50.76 166.415 50.52C165.215 50.3067 164.255 49.9867 163.535 49.56C162.815 49.16 162.295 48.6533 161.975 48.04C161.655 47.4533 161.495 46.8 161.495 46.08C161.495 45.5467 161.615 45.0533 161.855 44.6C162.095 44.1733 162.415 43.7867 162.815 43.44C163.215 43.12 163.681 42.84 164.215 42.6C164.748 42.36 165.295 42.1733 165.855 42.04V41.88C164.975 41.64 164.295 41.2133 163.815 40.6C163.335 39.9867 163.095 39.2133 163.095 38.28C163.095 37.1333 163.455 36.24 164.175 35.6C164.921 34.96 165.801 34.5067 166.815 34.24V34.08C165.535 33.5467 164.521 32.7733 163.775 31.76C163.028 30.72 162.655 29.4533 162.655 27.96C162.655 26.8933 162.855 25.9333 163.255 25.08C163.681 24.2267 164.255 23.5067 164.975 22.92C165.721 22.3333 166.601 21.8933 167.615 21.6C168.628 21.28 169.748 21.12 170.975 21.12C172.175 21.12 173.188 21.24 174.015 21.48C174.841 21.72 175.601 22.0667 176.295 22.52C176.348 21 176.681 19.9333 177.295 19.32C177.908 18.68 178.695 18.36 179.655 18.36C180.321 18.36 180.868 18.56 181.295 18.96C181.748 19.3333 181.975 19.8667 181.975 20.56C181.975 21.2 181.761 21.7333 181.335 22.16C180.935 22.56 180.375 22.76 179.655 22.76C178.855 22.76 178.201 22.4667 177.695 21.88H177.535V23.52C178.015 24 178.441 24.6 178.815 25.32C179.188 26.0133 179.375 26.8933 179.375 27.96C179.375 29.0267 179.161 29.9867 178.735 30.84C178.335 31.6933 177.761 32.4133 177.015 33C176.268 33.5867 175.375 34.04 174.335 34.36C173.321 34.68 172.201 34.84 170.975 34.84C170.521 34.84 170.081 34.8133 169.655 34.76C169.255 34.7067 168.855 34.64 168.455 34.56C167.895 34.7467 167.415 35.0267 167.015 35.4C166.615 35.7733 166.415 36.2267 166.415 36.76C166.415 37.3733 166.641 37.8133 167.095 38.08C167.575 38.3467 168.361 38.48 169.455 38.48H174.135C176.721 38.48 178.601 38.9867 179.775 40C180.948 41.0133 181.535 42.4 181.535 44.16C181.535 46.24 180.641 47.88 178.855 49.08C177.095 50.28 174.428 50.88 170.855 50.88ZM171.015 32.68C172.295 32.68 173.255 32.3333 173.895 31.64C174.535 30.9467 174.855 29.9467 174.855 28.64V27.32C174.855 26.0133 174.535 25.0133 173.895 24.32C173.255 23.6267 172.295 23.28 171.015 23.28C169.735 23.28 168.775 23.6267 168.135 24.32C167.495 25.0133 167.175 26.0133 167.175 27.32V28.64C167.175 29.9467 167.495 30.9467 168.135 31.64C168.775 32.3333 169.735 32.68 171.015 32.68ZM165.255 45.72C165.255 46.7067 165.668 47.44 166.495 47.92C167.321 48.4 168.495 48.64 170.015 48.64H172.175C173.988 48.64 175.375 48.3467 176.335 47.76C177.321 47.2 177.815 46.4 177.815 45.36C177.815 44.4 177.481 43.7067 176.815 43.28C176.175 42.8533 175.121 42.64 173.655 42.64H167.175C165.895 43.3067 165.255 44.3333 165.255 45.72Z" fill="white"/>
<path d="M193.974 23.76H191.974V21.6H201.454V23.76H198.814L203.734 38.04H203.934L208.854 23.76H206.214V21.6H213.534V23.76H211.534L204.494 42.4H201.014L193.974 23.76Z" fill="#0F2A3D"/>
<path d="M220.447 17.72C219.594 17.72 218.927 17.48 218.447 17C217.967 16.4933 217.727 15.8533 217.727 15.08V14.84C217.727 14.0667 217.967 13.44 218.447 12.96C218.927 12.4533 219.594 12.2 220.447 12.2C221.301 12.2 221.967 12.4533 222.447 12.96C222.927 13.44 223.167 14.0667 223.167 14.84V15.08C223.167 15.8533 222.927 16.4933 222.447 17C221.967 17.48 221.301 17.72 220.447 17.72ZM215.488 40.24H218.208V24.8L215.488 24.28V22.52L222.688 21.12V40.24H225.408V42.4H215.488V40.24Z" fill="#0F2A3D"/>
<path d="M236.937 42.88C235.577 42.88 234.471 42.6133 233.617 42.08C232.764 41.5467 232.204 40.96 231.937 40.32H231.777V42.4H228.737V36.2H231.777V36.92C231.777 38.04 232.124 38.92 232.817 39.56C233.511 40.2 234.631 40.52 236.177 40.52C239.057 40.52 240.497 39.5067 240.497 37.48C240.497 35.9067 239.457 34.8667 237.377 34.36L235.217 33.84C233.084 33.3333 231.497 32.56 230.457 31.52C229.417 30.48 228.897 29.0533 228.897 27.24C228.897 25.2933 229.551 23.7867 230.857 22.72C232.164 21.6533 233.897 21.12 236.057 21.12C237.391 21.12 238.457 21.3467 239.257 21.8C240.057 22.2533 240.577 22.8 240.817 23.44H240.977V21.6H244.017V27.8H240.977V26.64C240.977 24.5333 239.551 23.48 236.697 23.48C235.471 23.48 234.524 23.72 233.857 24.2C233.217 24.6533 232.897 25.3467 232.897 26.28C232.897 27.9333 233.964 29.0267 236.097 29.56L238.137 30.04C240.297 30.52 241.911 31.2533 242.977 32.24C244.044 33.2 244.577 34.6267 244.577 36.52C244.577 38.44 243.884 39.9867 242.497 41.16C241.137 42.3067 239.284 42.88 236.937 42.88Z" fill="#0F2A3D"/>
<path d="M253.26 17.72C252.407 17.72 251.74 17.48 251.26 17C250.78 16.4933 250.54 15.8533 250.54 15.08V14.84C250.54 14.0667 250.78 13.44 251.26 12.96C251.74 12.4533 252.407 12.2 253.26 12.2C254.113 12.2 254.78 12.4533 255.26 12.96C255.74 13.44 255.98 14.0667 255.98 14.84V15.08C255.98 15.8533 255.74 16.4933 255.26 17C254.78 17.48 254.113 17.72 253.26 17.72ZM248.3 40.24H251.02V24.8L248.3 24.28V22.52L255.5 21.12V40.24H258.22V42.4H248.3V40.24Z" fill="#0F2A3D"/>
<path d="M270.91 40.52C272.59 40.52 273.816 40 274.59 38.96C275.39 37.92 275.79 36.5333 275.79 34.8V29.2C275.79 27.4667 275.39 26.08 274.59 25.04C273.816 24 272.59 23.48 270.91 23.48C269.23 23.48 267.99 24 267.19 25.04C266.416 26.08 266.03 27.4667 266.03 29.2V34.8C266.03 36.5333 266.416 37.92 267.19 38.96C267.99 40 269.23 40.52 270.91 40.52ZM270.91 42.88C269.443 42.88 268.11 42.6267 266.91 42.12C265.71 41.6133 264.683 40.8933 263.83 39.96C262.976 39.0267 262.31 37.8933 261.83 36.56C261.376 35.2 261.15 33.68 261.15 32C261.15 30.32 261.376 28.8133 261.83 27.48C262.31 26.12 262.976 24.9733 263.83 24.04C264.683 23.1067 265.71 22.3867 266.91 21.88C268.11 21.3733 269.443 21.12 270.91 21.12C272.376 21.12 273.71 21.3733 274.91 21.88C276.11 22.3867 277.136 23.1067 277.99 24.04C278.843 24.9733 279.496 26.12 279.95 27.48C280.43 28.8133 280.67 30.32 280.67 32C280.67 33.68 280.43 35.2 279.95 36.56C279.496 37.8933 278.843 39.0267 277.99 39.96C277.136 40.8933 276.11 41.6133 274.91 42.12C273.71 42.6267 272.376 42.88 270.91 42.88Z" fill="#0F2A3D"/>
<path d="M284.12 40.24H286.84V24.8L284.12 24.28V22.52L291.2 21.12V24.84H291.4C291.56 24.3867 291.8 23.9333 292.12 23.48C292.467 23.0267 292.88 22.6267 293.36 22.28C293.867 21.9333 294.44 21.6533 295.08 21.44C295.747 21.2267 296.494 21.12 297.32 21.12C299.854 21.12 301.654 21.7733 302.72 23.08C303.787 24.36 304.32 26.2933 304.32 28.88V40.24H307.04V42.4H297.2V40.24H299.84V29.12C299.84 27.3867 299.507 26.12 298.84 25.32C298.174 24.52 297.12 24.12 295.68 24.12C295.147 24.12 294.614 24.2 294.08 24.36C293.574 24.4933 293.107 24.72 292.68 25.04C292.28 25.3333 291.947 25.7067 291.68 26.16C291.44 26.6133 291.32 27.16 291.32 27.8V40.24H293.96V42.4H284.12V40.24Z" fill="#0F2A3D"/>
<path d="M318.578 42.88C317.218 42.88 316.111 42.6133 315.258 42.08C314.404 41.5467 313.844 40.96 313.578 40.32H313.418V42.4H310.378V36.2H313.418V36.92C313.418 38.04 313.764 38.92 314.458 39.56C315.151 40.2 316.271 40.52 317.818 40.52C320.698 40.52 322.138 39.5067 322.138 37.48C322.138 35.9067 321.098 34.8667 319.018 34.36L316.858 33.84C314.724 33.3333 313.138 32.56 312.098 31.52C311.058 30.48 310.538 29.0533 310.538 27.24C310.538 25.2933 311.191 23.7867 312.498 22.72C313.804 21.6533 315.538 21.12 317.698 21.12C319.031 21.12 320.098 21.3467 320.898 21.8C321.698 22.2533 322.218 22.8 322.458 23.44H322.618V21.6H325.658V27.8H322.618V26.64C322.618 24.5333 321.191 23.48 318.338 23.48C317.111 23.48 316.164 23.72 315.498 24.2C314.858 24.6533 314.538 25.3467 314.538 26.28C314.538 27.9333 315.604 29.0267 317.738 29.56L319.778 30.04C321.938 30.52 323.551 31.2533 324.618 32.24C325.685 33.2 326.218 34.6267 326.218 36.52C326.218 38.44 325.524 39.9867 324.138 41.16C322.778 42.3067 320.924 42.88 318.578 42.88Z" fill="#0F2A3D"/>
<path d="M345.638 42.72C344.118 42.72 343.051 42.4 342.438 41.76C341.824 41.12 341.517 40.1067 341.517 38.72V23.92H338.797V21.6H339.478C340.464 21.6 341.144 21.4267 341.517 21.08C341.891 20.7333 342.198 20.2267 342.438 19.56L343.677 16.04H345.997V21.6H350.997V23.92H345.997V40.12H350.997V41.88C350.544 42.0933 349.811 42.28 348.798 42.44C347.811 42.6267 346.758 42.72 345.638 42.72Z" fill="#0F2A3D"/>
<path d="M363.371 40.52C365.051 40.52 366.277 40 367.051 38.96C367.851 37.92 368.251 36.5333 368.251 34.8V29.2C368.251 27.4667 367.851 26.08 367.051 25.04C366.277 24 365.051 23.48 363.371 23.48C361.691 23.48 360.451 24 359.651 25.04C358.877 26.08 358.491 27.4667 358.491 29.2V34.8C358.491 36.5333 358.877 37.92 359.651 38.96C360.451 40 361.691 40.52 363.371 40.52ZM363.371 42.88C361.904 42.88 360.571 42.6267 359.371 42.12C358.171 41.6133 357.144 40.8933 356.291 39.96C355.437 39.0267 354.771 37.8933 354.291 36.56C353.837 35.2 353.611 33.68 353.611 32C353.611 30.32 353.837 28.8133 354.291 27.48C354.771 26.12 355.437 24.9733 356.291 24.04C357.144 23.1067 358.171 22.3867 359.371 21.88C360.571 21.3733 361.904 21.12 363.371 21.12C364.837 21.12 366.171 21.3733 367.371 21.88C368.571 22.3867 369.597 23.1067 370.451 24.04C371.304 24.9733 371.957 26.12 372.411 27.48C372.891 28.8133 373.131 30.32 373.131 32C373.131 33.68 372.891 35.2 372.411 36.56C371.957 37.8933 371.304 39.0267 370.451 39.96C369.597 40.8933 368.571 41.6133 367.371 42.12C366.171 42.6267 364.837 42.88 363.371 42.88Z" fill="#0F2A3D"/>
<path d="M385.358 40.24H388.078V15.68L385.358 15.16V13.4L392.558 12V40.24H395.278V42.4H385.358V40.24Z" fill="#0F2A3D"/>
<path d="M403.221 17.72C402.368 17.72 401.701 17.48 401.221 17C400.741 16.4933 400.501 15.8533 400.501 15.08V14.84C400.501 14.0667 400.741 13.44 401.221 12.96C401.701 12.4533 402.368 12.2 403.221 12.2C404.074 12.2 404.741 12.4533 405.221 12.96C405.701 13.44 405.941 14.0667 405.941 14.84V15.08C405.941 15.8533 405.701 16.4933 405.221 17C404.741 17.48 404.074 17.72 403.221 17.72ZM398.261 40.24H400.981V24.8L398.261 24.28V22.52L405.461 21.12V40.24H408.181V42.4H398.261V40.24Z" fill="#0F2A3D"/>
<path d="M411.071 40.24H413.791V23.92H411.071V21.6H413.791V19.08C413.791 18.0133 413.964 17.04 414.311 16.16C414.657 15.28 415.151 14.5333 415.791 13.92C416.457 13.3067 417.244 12.84 418.151 12.52C419.084 12.1733 420.124 12 421.271 12C422.871 12 424.097 12.3333 424.951 13C425.831 13.6667 426.271 14.52 426.271 15.56C426.271 16.3333 426.044 16.9467 425.591 17.4C425.164 17.8533 424.604 18.08 423.911 18.08C423.191 18.08 422.631 17.88 422.231 17.48C421.831 17.0533 421.631 16.5333 421.631 15.92C421.631 15.44 421.737 15.0533 421.951 14.76C422.164 14.44 422.417 14.2133 422.711 14.08V13.96C422.391 13.88 421.977 13.84 421.471 13.84C419.337 13.84 418.271 15.3467 418.271 18.36V21.6H422.591V23.92H418.271V40.24H421.791V42.4H411.071V40.24Z" fill="#0F2A3D"/>
<path d="M434.659 42.88C433.112 42.88 431.739 42.6267 430.539 42.12C429.339 41.5867 428.325 40.84 427.499 39.88C426.672 38.92 426.032 37.7733 425.579 36.44C425.152 35.1067 424.939 33.6267 424.939 32C424.939 30.3467 425.165 28.8533 425.619 27.52C426.099 26.1867 426.752 25.0533 427.579 24.12C428.432 23.16 429.432 22.4267 430.579 21.92C431.752 21.3867 433.032 21.12 434.419 21.12C435.832 21.12 437.099 21.36 438.219 21.84C439.339 22.2933 440.285 22.9467 441.059 23.8C441.859 24.6533 442.472 25.68 442.899 26.88C443.325 28.08 443.539 29.4133 443.539 30.88V31.96H429.779V33.24C429.779 35.32 430.299 36.9333 431.339 38.08C432.379 39.2 433.779 39.76 435.539 39.76C437.085 39.76 438.325 39.4267 439.259 38.76C440.219 38.0667 440.925 37.2133 441.379 36.2L443.099 37.24C442.859 37.9333 442.499 38.6133 442.019 39.28C441.565 39.9467 440.992 40.5467 440.299 41.08C439.605 41.6133 438.792 42.0533 437.859 42.4C436.925 42.72 435.859 42.88 434.659 42.88ZM429.779 29.84H438.899V29.4C438.899 27.48 438.525 26 437.779 24.96C437.059 23.8933 435.939 23.36 434.419 23.36C432.925 23.36 431.779 23.88 430.979 24.92C430.179 25.9333 429.779 27.4 429.779 29.32V29.84Z" fill="#0F2A3D"/>
<path d="M445.832 48C446.846 47.1467 447.672 46.2933 448.312 45.44C448.979 44.5867 449.432 43.7333 449.672 42.88H449.592C448.793 42.88 448.126 42.6133 447.592 42.08C447.086 41.5467 446.832 40.8667 446.832 40.04V39.8C446.832 39.0267 447.086 38.36 447.592 37.8C448.126 37.24 448.859 36.96 449.793 36.96C450.726 36.96 451.446 37.24 451.953 37.8C452.486 38.36 452.753 39.0267 452.753 39.8V40.4C452.753 41.0667 452.632 41.7467 452.392 42.44C452.179 43.16 451.886 43.8533 451.513 44.52C451.139 45.1867 450.686 45.8133 450.152 46.4C449.646 47.0133 449.099 47.5467 448.513 48H445.832Z" fill="#0F2A3D"/>
<path d="M475.988 40.52C477.668 40.52 478.894 40 479.668 38.96C480.468 37.92 480.868 36.5333 480.868 34.8V29.2C480.868 27.4667 480.468 26.08 479.668 25.04C478.894 24 477.668 23.48 475.988 23.48C474.308 23.48 473.068 24 472.268 25.04C471.494 26.08 471.108 27.4667 471.108 29.2V34.8C471.108 36.5333 471.494 37.92 472.268 38.96C473.068 40 474.308 40.52 475.988 40.52ZM475.988 42.88C474.521 42.88 473.188 42.6267 471.988 42.12C470.788 41.6133 469.761 40.8933 468.908 39.96C468.054 39.0267 467.388 37.8933 466.908 36.56C466.454 35.2 466.228 33.68 466.228 32C466.228 30.32 466.454 28.8133 466.908 27.48C467.388 26.12 468.054 24.9733 468.908 24.04C469.761 23.1067 470.788 22.3867 471.988 21.88C473.188 21.3733 474.521 21.12 475.988 21.12C477.454 21.12 478.788 21.3733 479.988 21.88C481.188 22.3867 482.214 23.1067 483.068 24.04C483.921 24.9733 484.574 26.12 485.028 27.48C485.508 28.8133 485.748 30.32 485.748 32C485.748 33.68 485.508 35.2 485.028 36.56C484.574 37.8933 483.921 39.0267 483.068 39.96C482.214 40.8933 481.188 41.6133 479.988 42.12C478.788 42.6267 477.454 42.88 475.988 42.88Z" fill="#67D3DF"/>
<path d="M489.198 40.24H491.918V24.8L489.198 24.28V22.52L496.278 21.12V24.84H496.478C496.638 24.3867 496.878 23.9333 497.198 23.48C497.545 23.0267 497.958 22.6267 498.438 22.28C498.945 21.9333 499.518 21.6533 500.158 21.44C500.825 21.2267 501.572 21.12 502.398 21.12C504.932 21.12 506.732 21.7733 507.798 23.08C508.865 24.36 509.398 26.2933 509.398 28.88V40.24H512.118V42.4H502.278V40.24H504.918V29.12C504.918 27.3867 504.585 26.12 503.918 25.32C503.252 24.52 502.198 24.12 500.758 24.12C500.225 24.12 499.692 24.2 499.158 24.36C498.652 24.4933 498.185 24.72 497.758 25.04C497.358 25.3333 497.025 25.7067 496.758 26.16C496.518 26.6133 496.398 27.16 496.398 27.8V40.24H499.038V42.4H489.198V40.24Z" fill="#67D3DF"/>
<path d="M524.776 42.88C523.229 42.88 521.856 42.6267 520.656 42.12C519.456 41.5867 518.443 40.84 517.616 39.88C516.789 38.92 516.149 37.7733 515.696 36.44C515.269 35.1067 515.056 33.6267 515.056 32C515.056 30.3467 515.283 28.8533 515.736 27.52C516.216 26.1867 516.869 25.0533 517.696 24.12C518.549 23.16 519.549 22.4267 520.696 21.92C521.869 21.3867 523.149 21.12 524.536 21.12C525.949 21.12 527.216 21.36 528.336 21.84C529.456 22.2933 530.403 22.9467 531.176 23.8C531.976 24.6533 532.589 25.68 533.016 26.88C533.443 28.08 533.656 29.4133 533.656 30.88V31.96H519.896V33.24C519.896 35.32 520.416 36.9333 521.456 38.08C522.496 39.2 523.896 39.76 525.656 39.76C527.203 39.76 528.443 39.4267 529.376 38.76C530.336 38.0667 531.043 37.2133 531.496 36.2L533.216 37.24C532.976 37.9333 532.616 38.6133 532.136 39.28C531.683 39.9467 531.109 40.5467 530.416 41.08C529.723 41.6133 528.909 42.0533 527.976 42.4C527.043 42.72 525.976 42.88 524.776 42.88ZM519.896 29.84H529.016V29.4C529.016 27.48 528.643 26 527.896 24.96C527.176 23.8933 526.056 23.36 524.536 23.36C523.043 23.36 521.896 23.88 521.096 24.92C520.296 25.9333 519.896 27.4 519.896 29.32V29.84Z" fill="#67D3DF"/>
<path d="M546.188 40.24H548.908V23.92H546.188V21.6H548.908V19.08C548.908 18.0133 549.081 17.04 549.428 16.16C549.774 15.28 550.268 14.5333 550.908 13.92C551.575 13.3067 552.361 12.84 553.268 12.52C554.201 12.1733 555.241 12 556.388 12C557.988 12 559.214 12.3333 560.068 13C560.948 13.6667 561.388 14.52 561.388 15.56C561.388 16.3333 561.161 16.9467 560.708 17.4C560.281 17.8533 559.721 18.08 559.028 18.08C558.308 18.08 557.748 17.88 557.348 17.48C556.948 17.0533 556.748 16.5333 556.748 15.92C556.748 15.44 556.854 15.0533 557.068 14.76C557.281 14.44 557.534 14.2133 557.828 14.08V13.96C557.508 13.88 557.094 13.84 556.588 13.84C554.454 13.84 553.388 15.3467 553.388 18.36V21.6H557.708V23.92H553.388V40.24H556.908V42.4H546.188V40.24Z" fill="#0F2A3D"/>
<path d="M569.762 42.88C567.229 42.88 565.429 42.24 564.362 40.96C563.295 39.6533 562.762 37.7067 562.762 35.12V24.8L560.042 24.28V22.52L567.242 21.12V34.88C567.242 36.6133 567.575 37.88 568.242 38.68C568.909 39.48 569.962 39.88 571.402 39.88C571.935 39.88 572.455 39.8133 572.962 39.68C573.495 39.52 573.962 39.2933 574.362 39C574.789 38.68 575.122 38.2933 575.362 37.84C575.629 37.3867 575.762 36.84 575.762 36.2V24.8L573.042 24.28V22.52L580.242 21.12V39.2L582.962 39.72V41.48L575.882 42.88V39.16H575.682C575.522 39.6133 575.269 40.0667 574.922 40.52C574.602 40.9733 574.189 41.3733 573.682 41.72C573.202 42.0667 572.629 42.3467 571.962 42.56C571.322 42.7733 570.589 42.88 569.762 42.88Z" fill="#0F2A3D"/>
<path d="M585.956 40.24H588.676V24.8L585.956 24.28V22.52L593.036 21.12V24.84H593.236C593.396 24.3867 593.636 23.9333 593.956 23.48C594.303 23.0267 594.716 22.6267 595.196 22.28C595.703 21.9333 596.276 21.6533 596.916 21.44C597.583 21.2267 598.33 21.12 599.156 21.12C601.69 21.12 603.49 21.7733 604.556 23.08C605.623 24.36 606.156 26.2933 606.156 28.88V40.24H608.876V42.4H599.036V40.24H601.676V29.12C601.676 27.3867 601.343 26.12 600.676 25.32C600.01 24.52 598.956 24.12 597.516 24.12C596.983 24.12 596.45 24.2 595.916 24.36C595.41 24.4933 594.943 24.72 594.516 25.04C594.116 25.3333 593.783 25.7067 593.516 26.16C593.276 26.6133 593.156 27.16 593.156 27.8V40.24H595.796V42.4H585.956V40.24Z" fill="#0F2A3D"/>
<path d="M621.574 42.88C620 42.88 618.6 42.6133 617.374 42.08C616.174 41.5467 615.16 40.8 614.334 39.84C613.507 38.88 612.88 37.7333 612.454 36.4C612.027 35.0667 611.814 33.6 611.814 32C611.814 30.2933 612.067 28.7733 612.574 27.44C613.08 26.08 613.787 24.9333 614.694 24C615.6 23.0667 616.667 22.36 617.894 21.88C619.147 21.3733 620.507 21.12 621.974 21.12C624.267 21.12 626.054 21.6 627.334 22.56C628.64 23.52 629.294 24.7467 629.294 26.24C629.294 27.1733 629.04 27.9067 628.534 28.44C628.027 28.9467 627.347 29.2 626.494 29.2C625.614 29.2 624.947 28.96 624.494 28.48C624.04 27.9733 623.814 27.3467 623.814 26.6C623.814 25.9867 623.974 25.4533 624.294 25C624.614 24.5467 625.027 24.2133 625.534 24V23.8C625.214 23.6667 624.814 23.5467 624.334 23.44C623.854 23.3067 623.254 23.24 622.534 23.24C621.654 23.24 620.854 23.4 620.134 23.72C619.414 24.04 618.8 24.4933 618.294 25.08C617.787 25.64 617.387 26.32 617.094 27.12C616.827 27.92 616.694 28.8133 616.694 29.8V33.28C616.694 35.28 617.187 36.8667 618.174 38.04C619.16 39.1867 620.507 39.76 622.214 39.76C623.814 39.76 625.054 39.4133 625.934 38.72C626.84 38.0267 627.534 37.1733 628.014 36.16L629.734 37.2C629.494 37.8933 629.147 38.5733 628.694 39.24C628.24 39.9067 627.68 40.52 627.014 41.08C626.347 41.6133 625.56 42.0533 624.654 42.4C623.747 42.72 622.72 42.88 621.574 42.88Z" fill="#0F2A3D"/>
<path d="M639.27 42.72C637.75 42.72 636.684 42.4 636.07 41.76C635.457 41.12 635.15 40.1067 635.15 38.72V23.92H632.43V21.6H633.11C634.097 21.6 634.777 21.4267 635.15 21.08C635.524 20.7333 635.83 20.2267 636.07 19.56L637.31 16.04H639.63V21.6H644.63V23.92H639.63V40.12H644.63V41.88C644.177 42.0933 643.444 42.28 642.43 42.44C641.444 42.6267 640.39 42.72 639.27 42.72Z" fill="#0F2A3D"/>
<path d="M652.44 17.72C651.586 17.72 650.92 17.48 650.44 17C649.96 16.4933 649.72 15.8533 649.72 15.08V14.84C649.72 14.0667 649.96 13.44 650.44 12.96C650.92 12.4533 651.586 12.2 652.44 12.2C653.293 12.2 653.96 12.4533 654.44 12.96C654.92 13.44 655.16 14.0667 655.16 14.84V15.08C655.16 15.8533 654.92 16.4933 654.44 17C653.96 17.48 653.293 17.72 652.44 17.72ZM647.48 40.24H650.2V24.8L647.48 24.28V22.52L654.68 21.12V40.24H657.4V42.4H647.48V40.24Z" fill="#0F2A3D"/>
<path d="M670.089 40.52C671.769 40.52 672.996 40 673.769 38.96C674.569 37.92 674.969 36.5333 674.969 34.8V29.2C674.969 27.4667 674.569 26.08 673.769 25.04C672.996 24 671.769 23.48 670.089 23.48C668.409 23.48 667.169 24 666.369 25.04C665.596 26.08 665.209 27.4667 665.209 29.2V34.8C665.209 36.5333 665.596 37.92 666.369 38.96C667.169 40 668.409 40.52 670.089 40.52ZM670.089 42.88C668.623 42.88 667.289 42.6267 666.089 42.12C664.889 41.6133 663.863 40.8933 663.009 39.96C662.156 39.0267 661.489 37.8933 661.009 36.56C660.556 35.2 660.329 33.68 660.329 32C660.329 30.32 660.556 28.8133 661.009 27.48C661.489 26.12 662.156 24.9733 663.009 24.04C663.863 23.1067 664.889 22.3867 666.089 21.88C667.289 21.3733 668.623 21.12 670.089 21.12C671.556 21.12 672.889 21.3733 674.089 21.88C675.289 22.3867 676.316 23.1067 677.169 24.04C678.023 24.9733 678.676 26.12 679.129 27.48C679.609 28.8133 679.849 30.32 679.849 32C679.849 33.68 679.609 35.2 679.129 36.56C678.676 37.8933 678.023 39.0267 677.169 39.96C676.316 40.8933 675.289 41.6133 674.089 42.12C672.889 42.6267 671.556 42.88 670.089 42.88Z" fill="#0F2A3D"/>
<path d="M683.3 40.24H686.02V24.8L683.3 24.28V22.52L690.38 21.12V24.84H690.58C690.74 24.3867 690.98 23.9333 691.3 23.48C691.647 23.0267 692.06 22.6267 692.54 22.28C693.047 21.9333 693.62 21.6533 694.26 21.44C694.927 21.2267 695.673 21.12 696.5 21.12C699.033 21.12 700.833 21.7733 701.9 23.08C702.967 24.36 703.5 26.2933 703.5 28.88V40.24H706.22V42.4H696.38V40.24H699.02V29.12C699.02 27.3867 698.687 26.12 698.02 25.32C697.353 24.52 696.3 24.12 694.86 24.12C694.327 24.12 693.793 24.2 693.26 24.36C692.753 24.4933 692.287 24.72 691.86 25.04C691.46 25.3333 691.127 25.7067 690.86 26.16C690.62 26.6133 690.5 27.16 690.5 27.8V40.24H693.14V42.4H683.3V40.24Z" fill="#0F2A3D"/>
<path d="M286.256 94.88C284.176 94.88 282.603 94.3733 281.536 93.36C280.496 92.32 279.976 90.9067 279.976 89.12C279.976 87.0933 280.696 85.56 282.136 84.52C283.576 83.48 285.923 82.96 289.176 82.96H292.056V80.24C292.056 78.6133 291.696 77.3733 290.976 76.52C290.256 75.6667 289.123 75.24 287.576 75.24C286.269 75.24 285.283 75.4267 284.616 75.8V75.96C284.909 76.0933 285.176 76.3333 285.416 76.68C285.683 77 285.816 77.4533 285.816 78.04C285.816 78.7867 285.589 79.3867 285.136 79.84C284.709 80.2933 284.083 80.52 283.256 80.52C282.563 80.52 281.976 80.2933 281.496 79.84C281.043 79.36 280.816 78.72 280.816 77.92C280.816 77.3067 280.989 76.72 281.336 76.16C281.709 75.5733 282.243 75.0533 282.936 74.6C283.629 74.1467 284.469 73.7867 285.456 73.52C286.469 73.2533 287.629 73.12 288.936 73.12C291.443 73.12 293.336 73.7067 294.616 74.88C295.896 76.0533 296.536 77.6933 296.536 79.8V92.28H299.256V94.08C298.883 94.2933 298.403 94.48 297.816 94.64C297.229 94.8 296.603 94.88 295.936 94.88C294.709 94.88 293.803 94.5733 293.216 93.96C292.656 93.32 292.376 92.5067 292.376 91.52V91.32H292.176C291.989 91.7733 291.749 92.2133 291.456 92.64C291.163 93.04 290.776 93.4133 290.296 93.76C289.843 94.1067 289.283 94.3733 288.616 94.56C287.949 94.7733 287.163 94.88 286.256 94.88ZM288.016 92.08C289.189 92.08 290.149 91.8 290.896 91.24C291.669 90.68 292.056 89.76 292.056 88.48V84.92H289.656C287.763 84.92 286.443 85.2267 285.696 85.84C284.949 86.4533 284.576 87.3333 284.576 88.48V89.24C284.576 90.2 284.883 90.92 285.496 91.4C286.109 91.8533 286.949 92.08 288.016 92.08Z" fill="#0F2A3D"/>
<path d="M308.411 94.72C306.891 94.72 305.824 94.4 305.211 93.76C304.598 93.12 304.291 92.1067 304.291 90.72V75.92H301.571V73.6H302.251C303.238 73.6 303.918 73.4267 304.291 73.08C304.664 72.7333 304.971 72.2267 305.211 71.56L306.451 68.04H308.771V73.6H313.771V75.92H308.771V92.12H313.771V93.88C313.318 94.0933 312.584 94.28 311.571 94.44C310.584 94.6267 309.531 94.72 308.411 94.72Z" fill="#0F2A3D"/>
<path d="M331.881 94.88C329.801 94.88 328.228 94.3733 327.161 93.36C326.121 92.32 325.601 90.9067 325.601 89.12C325.601 87.0933 326.321 85.56 327.761 84.52C329.201 83.48 331.548 82.96 334.801 82.96H337.681V80.24C337.681 78.6133 337.321 77.3733 336.601 76.52C335.881 75.6667 334.748 75.24 333.201 75.24C331.894 75.24 330.908 75.4267 330.241 75.8V75.96C330.534 76.0933 330.801 76.3333 331.041 76.68C331.308 77 331.441 77.4533 331.441 78.04C331.441 78.7867 331.214 79.3867 330.761 79.84C330.334 80.2933 329.708 80.52 328.881 80.52C328.188 80.52 327.601 80.2933 327.121 79.84C326.668 79.36 326.441 78.72 326.441 77.92C326.441 77.3067 326.614 76.72 326.961 76.16C327.334 75.5733 327.868 75.0533 328.561 74.6C329.254 74.1467 330.094 73.7867 331.081 73.52C332.094 73.2533 333.254 73.12 334.561 73.12C337.068 73.12 338.961 73.7067 340.241 74.88C341.521 76.0533 342.161 77.6933 342.161 79.8V92.28H344.881V94.08C344.508 94.2933 344.028 94.48 343.441 94.64C342.854 94.8 342.228 94.88 341.561 94.88C340.334 94.88 339.428 94.5733 338.841 93.96C338.281 93.32 338.001 92.5067 338.001 91.52V91.32H337.801C337.614 91.7733 337.374 92.2133 337.081 92.64C336.788 93.04 336.401 93.4133 335.921 93.76C335.468 94.1067 334.908 94.3733 334.241 94.56C333.574 94.7733 332.788 94.88 331.881 94.88ZM333.641 92.08C334.814 92.08 335.774 91.8 336.521 91.24C337.294 90.68 337.681 89.76 337.681 88.48V84.92H335.281C333.388 84.92 332.068 85.2267 331.321 85.84C330.574 86.4533 330.201 87.3333 330.201 88.48V89.24C330.201 90.2 330.508 90.92 331.121 91.4C331.734 91.8533 332.574 92.08 333.641 92.08Z" fill="#0F2A3D"/>
<path d="M363.567 94.72C362.047 94.72 360.981 94.4 360.367 93.76C359.754 93.12 359.447 92.1067 359.447 90.72V75.92H356.727V73.6H357.407C358.394 73.6 359.074 73.4267 359.447 73.08C359.82 72.7333 360.127 72.2267 360.367 71.56L361.607 68.04H363.927V73.6H368.927V75.92H363.927V92.12H368.927V93.88C368.474 94.0933 367.741 94.28 366.727 94.44C365.741 94.6267 364.687 94.72 363.567 94.72Z" fill="#FEFEFE"/>
<path d="M376.737 69.72C375.883 69.72 375.217 69.48 374.737 69C374.257 68.4933 374.017 67.8533 374.017 67.08V66.84C374.017 66.0667 374.257 65.44 374.737 64.96C375.217 64.4533 375.883 64.2 376.737 64.2C377.59 64.2 378.257 64.4533 378.737 64.96C379.217 65.44 379.457 66.0667 379.457 66.84V67.08C379.457 67.8533 379.217 68.4933 378.737 69C378.257 69.48 377.59 69.72 376.737 69.72ZM371.777 92.24H374.497V76.8L371.777 76.28V74.52L378.977 73.12V92.24H381.697V94.4H371.777V92.24Z" fill="#FEFEFE"/>
<path d="M384.706 92.24H387.426V76.8L384.706 76.28V74.52L391.786 73.12V76.84H391.986C392.146 76.3867 392.386 75.9333 392.706 75.48C393.026 75.0267 393.426 74.6267 393.906 74.28C394.386 73.9333 394.946 73.6533 395.586 73.44C396.226 73.2267 396.96 73.12 397.786 73.12C399.573 73.12 400.973 73.4533 401.986 74.12C403.026 74.76 403.746 75.76 404.146 77.12H404.266C404.48 76.64 404.76 76.16 405.106 75.68C405.48 75.2 405.92 74.7733 406.426 74.4C406.933 74 407.52 73.6933 408.186 73.48C408.853 73.24 409.626 73.12 410.506 73.12C412.986 73.12 414.746 73.7733 415.786 75.08C416.826 76.36 417.346 78.2933 417.346 80.88V92.24H420.066V94.4H410.306V92.24H412.866V81.12C412.866 79.3867 412.533 78.12 411.866 77.32C411.226 76.52 410.226 76.12 408.866 76.12C408.333 76.12 407.813 76.2 407.306 76.36C406.8 76.4933 406.346 76.72 405.946 77.04C405.546 77.3333 405.226 77.72 404.986 78.2C404.746 78.6533 404.626 79.2 404.626 79.84V92.24H407.186V94.4H397.586V92.24H400.146V81.12C400.146 79.3867 399.813 78.12 399.146 77.32C398.506 76.52 397.506 76.12 396.146 76.12C395.613 76.12 395.093 76.2 394.586 76.36C394.08 76.4933 393.626 76.72 393.226 77.04C392.826 77.3333 392.506 77.72 392.266 78.2C392.026 78.6533 391.906 79.2 391.906 79.84V92.24H394.466V94.4H384.706V92.24Z" fill="#FEFEFE"/>
<path d="M432.667 94.88C431.12 94.88 429.747 94.6267 428.547 94.12C427.347 93.5867 426.333 92.84 425.507 91.88C424.68 90.92 424.04 89.7733 423.587 88.44C423.16 87.1067 422.947 85.6267 422.947 84C422.947 82.3467 423.173 80.8533 423.627 79.52C424.107 78.1867 424.76 77.0533 425.587 76.12C426.44 75.16 427.44 74.4267 428.587 73.92C429.76 73.3867 431.04 73.12 432.427 73.12C433.84 73.12 435.107 73.36 436.227 73.84C437.347 74.2933 438.293 74.9467 439.067 75.8C439.867 76.6533 440.48 77.68 440.907 78.88C441.333 80.08 441.547 81.4133 441.547 82.88V83.96H427.787V85.24C427.787 87.32 428.307 88.9333 429.347 90.08C430.387 91.2 431.787 91.76 433.547 91.76C435.093 91.76 436.333 91.4267 437.267 90.76C438.227 90.0667 438.933 89.2133 439.387 88.2L441.107 89.24C440.867 89.9333 440.507 90.6133 440.027 91.28C439.573 91.9467 439 92.5467 438.307 93.08C437.613 93.6133 436.8 94.0533 435.867 94.4C434.933 94.72 433.867 94.88 432.667 94.88ZM427.787 81.84H436.907V81.4C436.907 79.48 436.533 78 435.787 76.96C435.067 75.8933 433.947 75.36 432.427 75.36C430.933 75.36 429.787 75.88 428.987 76.92C428.187 77.9333 427.787 79.4 427.787 81.32V81.84Z" fill="#FEFEFE"/>
</g>
<defs>
<filter id="filter0_d_988_2402" x="0.4" y="0.4" width="721.42" height="114.08" filterUnits="userSpaceOnUse" color-interpolation-filters="sRGB">
<feFlood flood-opacity="0" result="BackgroundImageFix"/>
<feColorMatrix in="SourceAlpha" type="matrix" values="0 0 0 0 0 0 0 0 0 0 0 0 0 0 0 0 0 0 127 0" result="hardAlpha"/>
<feOffset dy="4"/>
<feGaussianBlur stdDeviation="7.8"/>
<feComposite in2="hardAlpha" operator="out"/>
<feColorMatrix type="matrix" values="0 0 0 0 0 0 0 0 0 0 0 0 0 0 0 0 0 0 0.25 0"/>
<feBlend mode="normal" in2="BackgroundImageFix" result="effect1_dropShadow_988_2402"/>
<feBlend mode="normal" in="SourceGraphic" in2="effect1_dropShadow_988_2402" result="shape"/>
</filter>
</defs>
</svg>
