<svg width="436" height="191" viewBox="0 0 436 191" fill="none" xmlns="http://www.w3.org/2000/svg">
<g filter="url(#filter0_d_483_422)">
<path d="M65.8027 152.806C56.49 152.806 48.0239 151.043 40.4044 147.515C32.7848 143.988 26.2941 138.908 20.9323 132.277C15.5704 125.645 11.4079 117.603 8.44472 108.15C5.48157 98.6963 4 88.1141 4 76.4032C4 64.1279 5.48157 53.2635 8.44472 43.8101C11.4079 34.3567 15.4998 26.3848 20.7206 19.8944C26.0825 13.4041 32.5026 8.46572 39.981 5.07943C47.4595 1.69314 55.7139 0 64.7445 0C73.9161 0 81.5356 1.55205 87.603 4.65615C93.8115 7.61915 97.9035 11.3582 99.8789 15.8732H100.726V2.53972H115.965V45.7149H100.726V34.7095C100.726 27.6547 97.6213 22.0109 91.4128 17.778C85.2043 13.4041 77.0909 11.2171 67.0727 11.2171C59.5942 11.2171 53.1035 12.628 47.6006 15.45C42.2387 18.1308 37.794 21.8698 34.2664 26.667C30.88 31.3232 28.3401 36.8259 26.6469 43.1752C25.0948 49.3834 24.3187 55.9443 24.3187 62.858V88.4668C24.3187 96.2271 25.3064 103.211 27.2819 109.419C29.3984 115.628 32.3615 120.989 36.1713 125.504C40.1222 129.878 44.9196 133.265 50.5637 135.663C56.2078 138.062 62.6279 139.261 69.8242 139.261C79.8424 139.261 88.238 136.651 95.0109 131.43C101.784 126.21 106.722 119.578 109.827 111.536L118.081 115.557C116.811 119.649 114.765 123.882 111.943 128.256C109.121 132.63 105.523 136.651 101.149 140.319C96.9158 143.988 91.8361 147.021 85.9098 149.42C79.9835 151.678 73.2812 152.806 65.8027 152.806Z" fill="#FFA439"/>
<path d="M133.962 138.692C133.962 133.396 134.069 127.379 134.285 120.64C134.328 119.004 137.923 117.97 145.072 117.54C145.201 117.131 145.201 116.625 145.072 116.022C139.431 116.194 135.028 116.28 131.863 116.28C129.214 116.28 125.468 116.194 120.624 116.022C120.43 116.409 120.43 116.915 120.624 117.54C125.554 118.013 128.041 119.047 128.084 120.64C128.299 125.699 128.407 131.717 128.407 138.692V161.718C128.407 167.983 127.955 172.364 127.051 174.862C126.146 177.381 124.262 178.64 121.399 178.64C119.332 178.64 117.739 178.081 116.619 176.961C115.521 175.841 114.972 174.55 114.972 173.086C114.972 171.945 115.263 171.04 115.844 170.373C116.425 169.706 117.114 169.372 117.911 169.372C118.643 169.372 119.278 169.641 119.816 170.179C120.355 170.05 120.71 169.673 120.882 169.049C120.085 167.908 118.912 167.337 117.362 167.337C115.812 167.337 114.563 167.833 113.616 168.823C112.668 169.813 112.195 171.191 112.195 172.957C112.195 175.023 113.002 176.821 114.617 178.35C116.231 179.9 118.492 180.675 121.399 180.675C122.583 180.675 123.66 180.546 124.628 180.287C125.597 180.029 126.48 179.598 127.277 178.996C128.073 178.414 128.773 177.758 129.376 177.026C129.979 176.294 130.506 175.292 130.958 174.022C131.432 172.773 131.83 171.546 132.153 170.341C132.476 169.135 132.745 167.585 132.961 165.69C133.197 163.796 133.381 161.998 133.51 160.297C133.639 158.596 133.736 156.465 133.8 153.903C133.865 151.341 133.908 148.973 133.93 146.798C133.951 144.624 133.962 141.922 133.962 138.692ZM122.206 181.999C118.503 181.999 115.704 181.116 113.809 179.351C111.893 177.607 110.913 175.475 110.87 172.957C110.827 170.739 111.462 169.017 112.776 167.789C114.068 166.562 115.575 165.949 117.297 165.949C118.934 165.949 120.344 166.498 121.528 167.596C122.712 168.694 123.304 170.212 123.304 172.149C123.304 172.989 123.175 173.689 122.917 174.248C122.658 174.83 122.368 175.282 122.045 175.605C121.743 175.949 121.571 176.186 121.528 176.315C121.7 176.724 122.077 177.015 122.658 177.187C124.467 176.8 125.651 175.432 126.211 173.086C126.792 170.739 127.083 166.95 127.083 161.718V138.692C127.083 131.76 126.975 125.764 126.76 120.705C126.717 119.908 124.316 119.273 119.558 118.799C119.192 117.378 119.235 115.99 119.687 114.633C123.476 114.849 128.299 114.956 134.156 114.956C135.038 114.956 136.804 114.935 139.452 114.892C142.1 114.849 144.415 114.827 146.396 114.827C146.805 116.054 146.826 117.378 146.46 118.799C141.702 119.273 139.301 119.908 139.258 120.705C139 126.087 138.871 132.879 138.871 141.082C138.871 144.57 138.828 147.659 138.742 150.351C138.655 153.02 138.462 155.841 138.16 158.812C137.88 161.761 137.493 164.312 136.998 166.465C136.524 168.64 135.867 170.75 135.028 172.795C134.188 174.84 133.187 176.498 132.024 177.768C130.861 179.06 129.451 180.083 127.793 180.836C126.136 181.611 124.273 181.999 122.206 181.999Z" fill="#0F2A3D"/>
<path d="M176.228 136.238C178.446 136.238 180.2 137.304 181.492 139.435C182.805 141.545 183.462 144.828 183.462 149.285C183.462 153.741 182.805 157.025 181.492 159.135C180.2 161.244 178.446 162.299 176.228 162.299C175.001 162.299 173.881 162.041 172.869 161.524C171.879 161.008 171.028 160.211 170.318 159.135C169.629 158.058 169.091 156.713 168.703 155.098C168.315 153.462 168.122 151.524 168.122 149.285C168.122 147.067 168.315 145.14 168.703 143.504C169.091 141.846 169.629 140.49 170.318 139.435C171.028 138.359 171.879 137.562 172.869 137.045C173.881 136.507 175.001 136.238 176.228 136.238ZM176.228 164.431C178.23 164.431 180.028 164.054 181.621 163.301C183.215 162.547 184.571 161.503 185.691 160.168C186.832 158.812 187.704 157.208 188.306 155.356C188.909 153.505 189.211 151.481 189.211 149.285C189.211 147.089 188.909 145.065 188.306 143.214C187.704 141.362 186.832 139.769 185.691 138.434C184.571 137.078 183.215 136.023 181.621 135.269C180.028 134.516 178.23 134.139 176.228 134.139C174.096 134.139 172.169 134.516 170.447 135.269C168.725 136.023 167.26 137.067 166.055 138.402C164.871 139.737 163.956 141.341 163.31 143.214C162.664 145.065 162.341 147.089 162.341 149.285C162.341 151.502 162.664 153.537 163.31 155.388C163.956 157.24 164.871 158.844 166.055 160.2C167.26 161.535 168.725 162.579 170.447 163.333C172.169 164.065 174.096 164.431 176.228 164.431ZM177.358 132.815C179.963 132.815 182.278 133.213 184.302 134.01C186.347 134.806 188.07 135.937 189.469 137.401C190.869 138.843 191.934 140.576 192.666 142.6C193.398 144.624 193.764 146.852 193.764 149.285C193.764 151.696 193.398 153.914 192.666 155.937C191.934 157.961 190.869 159.705 189.469 161.169C188.091 162.612 186.38 163.731 184.334 164.528C182.289 165.346 179.963 165.755 177.358 165.755C174.775 165.755 172.46 165.346 170.415 164.528C168.391 163.731 166.679 162.612 165.28 161.169C163.902 159.705 162.847 157.972 162.115 155.97C161.383 153.946 161.017 151.718 161.017 149.285C161.017 146.852 161.383 144.624 162.115 142.6C162.847 140.576 163.912 138.843 165.312 137.401C166.711 135.937 168.423 134.806 170.447 134.01C172.471 133.213 174.775 132.815 177.358 132.815ZM172.675 149.285C172.675 156.239 174.236 160.093 177.358 160.846C180.545 160.093 182.138 156.239 182.138 149.285C182.138 142.395 180.545 138.531 177.358 137.691C174.236 138.531 172.675 142.395 172.675 149.285Z" fill="#0F2A3D"/>
<path d="M231.509 155.679C231.681 150.297 231.681 144.904 231.509 139.5C231.509 138.746 229.884 138.1 226.632 137.562C226.137 136.249 226.137 134.946 226.632 133.654H240.584C241.187 133.891 241.618 134.15 241.876 134.43C242.156 134.709 242.404 135.118 242.619 135.657C242.619 136.044 242.565 136.658 242.457 137.497C242.35 138.337 242.296 139.005 242.296 139.5C242.081 146.583 242.081 152.751 242.296 158.004C243.846 158.499 245.482 158.79 247.205 158.876C247.679 160.146 247.679 161.514 247.205 162.978C244.384 163.15 240.896 164.119 236.741 165.884C234.394 165.712 232.65 165.001 231.509 163.753V162.913C228.559 164.808 225.061 165.755 221.013 165.755C218.085 165.755 216.007 164.958 214.78 163.365C213.553 161.772 212.918 159.275 212.874 155.873C212.918 150.469 212.918 145.011 212.874 139.5C212.874 138.746 211.238 138.1 207.966 137.562C207.492 136.249 207.492 134.946 207.966 133.654H221.982C222.606 133.891 223.048 134.15 223.306 134.43C223.586 134.709 223.834 135.118 224.049 135.657C224.049 136.044 223.995 136.658 223.887 137.497C223.78 138.337 223.726 139.005 223.726 139.5C223.575 144.516 223.575 149.629 223.726 154.839C223.812 157.294 224.253 158.726 225.05 159.135C226.622 158.726 228.775 157.574 231.509 155.679ZM232.833 139.5C232.962 145.097 232.962 150.717 232.833 156.357C228.829 159.221 225.739 160.652 223.564 160.652C220.615 160.652 219.14 158.715 219.14 154.839C219.011 149.629 219.011 144.516 219.14 139.5C219.14 138.918 219.194 138.219 219.301 137.401C219.431 136.583 219.495 136.066 219.495 135.85C219.258 135.355 218.946 135.022 218.559 134.849C215.372 135.065 212.196 135.065 209.031 134.849C208.859 135.345 208.859 135.85 209.031 136.367C212.433 136.905 214.156 137.95 214.199 139.5C214.242 144.968 214.242 150.426 214.199 155.873C214.156 158.801 214.662 160.965 215.717 162.364C216.771 163.742 218.537 164.431 221.013 164.431C224.264 164.431 228.204 162.418 232.833 158.392V163.107C233.005 163.451 233.382 163.731 233.964 163.946C237.042 162.805 241.036 162.041 245.945 161.654C246.118 161.115 246.118 160.609 245.945 160.136C242.242 159.985 239.508 159.544 237.742 158.812C237.57 151.126 237.57 144.688 237.742 139.5C237.742 138.918 237.796 138.219 237.904 137.401C238.011 136.583 238.065 136.066 238.065 135.85C237.85 135.355 237.538 135.022 237.129 134.849C234.007 135.022 230.852 135.022 227.666 134.849C227.494 135.345 227.494 135.85 227.666 136.367C231.068 136.905 232.79 137.95 232.833 139.5Z" fill="#0F2A3D"/>
<path d="M273.517 145.313C274.055 143.332 275.164 141.405 276.843 139.532C278.523 137.659 280.234 136.722 281.978 136.722C284.024 136.722 285.046 137.379 285.046 138.692C285.046 139.877 284.487 140.63 283.367 140.953C283.066 141.384 283.066 141.89 283.367 142.471C284.53 142.471 285.477 142.116 286.209 141.405C286.963 140.695 287.339 139.704 287.339 138.434C287.339 137.099 286.93 136.055 286.112 135.301C285.316 134.526 284.271 134.139 282.979 134.139C281.3 134.139 279.61 134.817 277.909 136.173C276.23 137.508 274.766 139.005 273.517 140.662V135.108C273.345 134.763 272.979 134.483 272.419 134.268C269.534 135.624 266.196 136.507 262.407 136.916C262.278 137.433 262.278 137.939 262.407 138.434C265.314 138.563 267.391 139.005 268.64 139.758C268.812 147.789 268.791 154.226 268.576 159.07C268.533 160.663 266.702 161.697 263.085 162.17C262.762 162.752 262.762 163.257 263.085 163.688C268.726 163.43 274.873 163.43 281.526 163.688C281.828 163.257 281.828 162.752 281.526 162.17C276.423 161.697 273.851 160.663 273.807 159.07C273.614 154.7 273.517 150.114 273.517 145.313ZM278.361 159.005C278.404 159.845 279.858 160.502 282.721 160.975C283.432 162.396 283.389 163.763 282.592 165.077C273.463 164.775 266.562 164.711 261.89 164.883C261.094 163.613 261.051 162.31 261.761 160.975C265.378 160.502 267.208 159.845 267.251 159.005C267.51 152.87 267.531 146.712 267.316 140.533C265.895 140.103 263.936 139.823 261.438 139.694C260.943 138.402 260.943 137.035 261.438 135.592C265.034 135.377 268.845 134.408 272.871 132.686C275.196 132.944 276.94 133.644 278.103 134.785C279.911 133.471 281.537 132.815 282.979 132.815C284.659 132.815 286.026 133.31 287.081 134.3C288.136 135.291 288.664 136.669 288.664 138.434C288.664 140.113 288.168 141.427 287.178 142.374C286.188 143.321 284.917 143.795 283.367 143.795C281.924 143.795 280.719 143.31 279.75 142.342C278.867 143.526 278.318 144.602 278.103 145.571C278.103 150.243 278.189 154.721 278.361 159.005Z" fill="#0F2A3D"/>
<path d="M324.987 162.009C324.729 162.504 324.729 163.031 324.987 163.591C330.585 163.462 336.194 163.462 341.813 163.591C342.115 163.074 342.115 162.547 341.813 162.009C336.56 161.75 333.911 160.717 333.868 158.909L333.546 142.665C333.438 139.715 332.953 137.562 332.092 136.206C331.253 134.828 329.767 134.139 327.635 134.139C324.061 134.139 319.809 136.604 314.879 141.534V135.108C314.706 134.763 314.33 134.483 313.748 134.268C310.755 135.667 307.644 136.55 304.415 136.916C304.286 137.433 304.286 137.939 304.415 138.434C306.891 138.563 308.721 139.005 309.905 139.758C310.142 146.195 310.142 152.579 309.905 158.909C309.862 160.502 308.01 161.535 304.35 162.009C304.092 162.504 304.092 163.031 304.35 163.591C309.948 163.376 315.578 163.376 321.241 163.591C321.499 163.031 321.499 162.504 321.241 162.009C317.215 161.578 315.18 160.545 315.137 158.909C314.965 154.43 314.879 149.328 314.879 143.601C319.206 139.79 322.597 137.885 325.052 137.885C327.399 137.885 328.572 139.833 328.572 143.73L328.507 158.909C328.507 159.963 328.184 160.706 327.538 161.137C326.893 161.546 326.042 161.837 324.987 162.009ZM323.954 164.721C323.415 163.451 323.415 162.149 323.954 160.814C324.643 160.814 325.353 160.631 326.085 160.265C326.817 159.877 327.183 159.425 327.183 158.909L327.248 143.73C327.248 141.384 326.785 139.952 325.859 139.435C324.266 139.823 322.124 140.985 319.432 142.923C319.432 148.844 319.518 154.151 319.691 158.844C319.798 159.985 320.66 160.642 322.274 160.814C322.813 162.149 322.813 163.451 322.274 164.721C315.966 164.506 309.625 164.506 303.252 164.721C302.714 163.451 302.714 162.149 303.252 160.814C306.762 160.34 308.538 159.684 308.581 158.844C308.818 152.773 308.818 146.669 308.581 140.533C307.138 140.103 305.362 139.823 303.252 139.694C302.757 138.402 302.757 137.035 303.252 135.592C306.503 135.42 310.163 134.451 314.233 132.686C316.558 132.858 318.291 133.558 319.432 134.785V135.85C322.49 133.827 325.999 132.815 329.961 132.815C332.867 132.815 334.934 133.611 336.161 135.205C337.41 136.776 338.056 139.263 338.099 142.665C338.185 151.212 338.293 156.626 338.422 158.909C338.465 159.791 339.983 160.426 342.976 160.814C343.471 162.235 343.428 163.537 342.847 164.721C336.538 164.592 330.241 164.592 323.954 164.721Z" fill="#0F2A3D"/>
<path d="M371.839 136.238C373.562 136.238 374.81 136.798 375.585 137.917C376.361 139.015 376.748 140.393 376.748 142.051C376.748 142.675 376.64 143.386 376.425 144.182H363.83C364.497 141.491 365.574 139.5 367.059 138.208C368.567 136.895 370.16 136.238 371.839 136.238ZM363.507 146.378H381.108C381.453 145.302 381.625 144.193 381.625 143.052C381.625 140.533 380.904 138.423 379.461 136.722C378.04 135 375.768 134.139 372.647 134.139C368.577 134.139 365.154 135.614 362.377 138.563C359.599 141.513 358.21 145.259 358.21 149.802C358.21 154.646 359.535 158.295 362.183 160.749C364.831 163.204 367.942 164.431 371.516 164.431C374.164 164.431 376.619 163.72 378.88 162.299C381.162 160.857 382.83 158.693 383.885 155.808C383.584 155.464 383.164 155.227 382.626 155.098C382.54 155.227 382.281 155.582 381.851 156.164C381.442 156.723 381.14 157.132 380.947 157.391C380.753 157.628 380.398 157.983 379.881 158.456C379.386 158.909 378.901 159.242 378.428 159.458C377.975 159.673 377.394 159.888 376.684 160.103C375.973 160.297 375.198 160.394 374.358 160.394C371.043 160.394 368.405 159.414 366.446 157.455C364.487 155.475 363.464 152.816 363.378 149.479C363.378 148.725 363.421 147.692 363.507 146.378ZM382.109 153.58C383.466 153.881 384.564 154.56 385.403 155.615C384.176 158.973 382.281 161.503 379.719 163.204C377.157 164.904 374.423 165.755 371.516 165.755C367.555 165.755 364.121 164.42 361.214 161.75C358.329 159.081 356.886 155.098 356.886 149.802C356.886 145.001 358.361 140.975 361.311 137.724C364.282 134.451 368.48 132.815 373.906 132.815C382.109 132.815 386.211 136.227 386.211 143.052C386.211 144.387 385.899 145.937 385.274 147.702H367.931V149.802C368.039 152.407 368.75 154.527 370.063 156.164C371.376 157.778 373.185 158.726 375.489 159.005C376.845 158.876 377.965 158.413 378.847 157.617C379.73 156.82 380.817 155.475 382.109 153.58ZM375.424 142.051C375.424 139.683 374.627 138.251 373.034 137.756C371.139 138.337 369.729 140.038 368.803 142.858H375.359C375.359 142.772 375.37 142.643 375.392 142.471C375.413 142.299 375.424 142.159 375.424 142.051Z" fill="#0F2A3D"/>
<path d="M431.706 133.654C432.137 135.032 432.094 136.335 431.577 137.562C428.886 137.691 427.207 138.509 426.539 140.016L416.624 163.882L413.104 173.215C411.705 176.961 410.273 179.523 408.809 180.901C407.366 182.3 405.558 183 403.383 183C401.574 183 400.121 182.451 399.023 181.353C397.925 180.255 397.376 178.888 397.376 177.252C397.376 175.658 397.925 174.313 399.023 173.215C400.121 172.117 401.467 171.568 403.06 171.568C404.955 171.568 406.473 172.289 407.614 173.732L411.522 163.43L401.736 140.016C401.262 138.746 399.497 137.928 396.439 137.562C395.88 136.335 395.837 135.032 396.31 133.654C403.588 133.934 410.23 133.934 416.237 133.654C416.667 135.032 416.624 136.335 416.108 137.562C414.816 137.648 413.933 137.853 413.459 138.176C413.007 138.477 412.943 139.005 413.266 139.758L417.206 149.414L420.855 139.758C421.113 139.091 421.038 138.574 420.629 138.208C420.241 137.82 419.348 137.605 417.948 137.562C417.41 136.335 417.367 135.032 417.819 133.654C419.585 133.741 424.214 133.741 431.706 133.654ZM430.705 134.849C425.947 135.065 421.985 135.065 418.82 134.849C418.584 135.431 418.584 135.937 418.82 136.367C419.639 136.41 420.328 136.507 420.887 136.658C421.447 136.787 421.91 137.099 422.276 137.594C422.642 138.068 422.674 138.703 422.373 139.5L415.623 157.262L408.809 140.275C408.335 139.048 408.82 138.111 410.262 137.465C411.726 136.819 413.384 136.453 415.236 136.367C415.451 135.937 415.451 135.431 415.236 134.849C408.798 135.129 402.823 135.129 397.311 134.849C397.096 135.431 397.096 135.937 397.311 136.367C400.304 136.733 402.177 137.777 402.931 139.5L412.975 163.494L409.422 172.698C408.712 174.679 407.861 176.229 406.871 177.349C405.881 178.468 404.858 179.028 403.803 179.028C402.037 179.028 401.155 178.145 401.155 176.38C401.155 175.239 401.575 174.582 402.414 174.41C402.716 173.915 402.716 173.409 402.414 172.892C401.338 172.892 400.444 173.247 399.734 173.958C399.045 174.69 398.7 175.702 398.7 176.993C398.7 178.393 399.174 179.523 400.121 180.384C401.069 181.245 402.274 181.676 403.738 181.676C405.504 181.676 406.968 181.062 408.131 179.835C409.293 178.608 410.542 176.251 411.877 172.763L415.365 163.365L425.344 139.5C426.184 137.541 427.971 136.496 430.705 136.367C430.921 135.937 430.921 135.431 430.705 134.849Z" fill="#0F2A3D"/>
<path d="M124.51 98.2156C126.142 98.2156 127.553 97.9511 128.743 97.422C129.978 96.8488 130.97 96.0772 131.719 95.1071C132.513 94.093 133.086 92.9246 133.439 91.6018C133.836 90.2349 134.034 88.7578 134.034 87.1705V80.0276C134.034 78.4402 133.836 76.9852 133.439 75.6624C133.086 74.2956 132.513 73.1271 131.719 72.1571C130.97 71.143 129.978 70.3713 128.743 69.8422C127.553 69.269 126.142 68.9824 124.51 68.9824C122.834 68.9824 121.401 69.269 120.211 69.8422C119.02 70.3713 118.028 71.143 117.234 72.1571C116.485 73.1271 115.912 74.2956 115.515 75.6624C115.162 76.9852 114.986 78.4402 114.986 80.0276V87.1705C114.986 88.7578 115.162 90.2349 115.515 91.6018C115.912 92.9246 116.485 94.093 117.234 95.1071C118.028 96.0772 119.02 96.8488 120.211 97.422C121.401 97.9511 122.834 98.2156 124.51 98.2156ZM124.51 101.456C122.173 101.456 120.034 101.038 118.094 100.2C116.154 99.362 114.501 98.1716 113.134 96.6283C111.767 95.041 110.708 93.1671 109.959 91.0065C109.209 88.8019 108.834 86.3328 108.834 83.599C108.834 80.9094 109.209 78.4623 109.959 76.2577C110.708 74.053 111.767 72.1791 113.134 70.6359C114.501 69.0486 116.154 67.836 118.094 66.9983C120.034 66.1605 122.173 65.7417 124.51 65.7417C126.847 65.7417 128.986 66.1605 130.926 66.9983C132.866 67.836 134.519 69.0486 135.886 70.6359C137.253 72.1791 138.312 74.053 139.061 76.2577C139.811 78.4623 140.186 80.9094 140.186 83.599C140.186 86.3328 139.811 88.8019 139.061 91.0065C138.312 93.1671 137.253 95.041 135.886 96.6283C134.519 98.1716 132.866 99.362 130.926 100.2C128.986 101.038 126.847 101.456 124.51 101.456Z" fill="#0F2A3D"/>
<path d="M172.345 101.456C168.112 101.456 164.717 99.9352 162.159 96.8929C159.646 93.8064 158.389 89.3751 158.389 83.599C158.389 77.8229 159.646 73.4137 162.159 70.3713C164.717 67.2849 168.112 65.7417 172.345 65.7417C174.991 65.7417 177.129 66.3148 178.761 67.4613C180.436 68.6077 181.649 69.9966 182.398 71.628H182.663V55.4902L177.702 54.6304V52.3155L188.087 50.3975V96.3638L192.981 97.2236V99.4723L182.663 101.456V95.504H182.398C181.649 97.1354 180.458 98.5463 178.827 99.7368C177.195 100.883 175.035 101.456 172.345 101.456ZM173.932 97.6865C174.991 97.6865 176.049 97.5322 177.107 97.2236C178.165 96.9149 179.091 96.474 179.885 95.9008C180.723 95.3276 181.384 94.6221 181.869 93.7844C182.398 92.9025 182.663 91.9325 182.663 90.8743V76.3238C182.663 75.2656 182.398 74.3176 181.869 73.4799C181.384 72.598 180.723 71.8705 179.885 71.2973C179.091 70.7241 178.165 70.2832 177.107 69.9745C176.049 69.6659 174.991 69.5115 173.932 69.5115C170.89 69.5115 168.509 70.5477 166.789 72.62C165.113 74.6483 164.276 77.382 164.276 80.8212V86.3769C164.276 89.8161 165.113 92.5718 166.789 94.6442C168.509 96.6724 170.89 97.6865 173.932 97.6865Z" fill="#0F2A3D"/>
<path d="M225.02 101.456C222.595 101.456 220.412 101.038 218.472 100.2C216.576 99.318 214.966 98.1054 213.644 96.5622C212.321 95.019 211.307 93.145 210.601 90.9404C209.896 88.7358 209.543 86.2887 209.543 83.599C209.543 80.9535 209.918 78.5505 210.667 76.3899C211.461 74.1853 212.519 72.2894 213.842 70.702C215.209 69.1147 216.818 67.9022 218.67 67.0644C220.522 66.1826 222.551 65.7417 224.755 65.7417C227.004 65.7417 229.011 66.1385 230.774 66.9321C232.538 67.7258 234.015 68.8502 235.206 70.3052C236.44 71.7162 237.388 73.4137 238.05 75.3979C238.711 77.382 239.042 79.5425 239.042 81.8794V83.4006H215.562V85.1202C215.562 88.8681 216.488 91.8223 218.34 93.9828C220.236 96.1433 222.749 97.2236 225.88 97.2236C228.614 97.2236 230.774 96.6724 232.362 95.5701C233.993 94.4237 235.272 92.9466 236.198 91.1388L238.381 92.5277C237.94 93.6741 237.322 94.7985 236.529 95.9008C235.779 96.959 234.853 97.907 233.751 98.7448C232.648 99.5384 231.37 100.178 229.914 100.663C228.459 101.192 226.828 101.456 225.02 101.456ZM215.562 80.3583H233.354V79.6969C233.354 78.1536 233.177 76.7206 232.825 75.3979C232.516 74.0751 232.009 72.9287 231.303 71.9587C230.598 70.9886 229.694 70.2391 228.592 69.71C227.533 69.1368 226.255 68.8502 224.755 68.8502C223.256 68.8502 221.933 69.1147 220.787 69.6438C219.64 70.1729 218.67 70.9225 217.877 71.8925C217.127 72.8626 216.554 74.009 216.157 75.3317C215.76 76.6104 215.562 78.0214 215.562 79.5646V80.3583Z" fill="#0F2A3D"/>
</g>
<defs>
<filter id="filter0_d_483_422" x="0" y="0" width="436" height="191" filterUnits="userSpaceOnUse" color-interpolation-filters="sRGB">
<feFlood flood-opacity="0" result="BackgroundImageFix"/>
<feColorMatrix in="SourceAlpha" type="matrix" values="0 0 0 0 0 0 0 0 0 0 0 0 0 0 0 0 0 0 127 0" result="hardAlpha"/>
<feOffset dy="4"/>
<feGaussianBlur stdDeviation="2"/>
<feComposite in2="hardAlpha" operator="out"/>
<feColorMatrix type="matrix" values="0 0 0 0 0 0 0 0 0 0 0 0 0 0 0 0 0 0 0.16 0"/>
<feBlend mode="normal" in2="BackgroundImageFix" result="effect1_dropShadow_483_422"/>
<feBlend mode="normal" in="SourceGraphic" in2="effect1_dropShadow_483_422" result="shape"/>
</filter>
</defs>
</svg>
